<?xml version="1.0" encoding="utf-8"?>
<!-- Generator: Adobe Illustrator 24.1.1, SVG Export Plug-In . SVG Version: 6.00 Build 0)  -->
<svg version="1.1" id="Layer_1" xmlns="http://www.w3.org/2000/svg" xmlns:xlink="http://www.w3.org/1999/xlink" x="0px" y="0px"
	 viewBox="0 0 7200 1200" style="enable-background:new 0 0 7200 1200;" xml:space="preserve">
<style type="text/css">
	.st0{fill:#00BE00;}
	.st1{stroke:#05192D;stroke-miterlimit:10;}
	.st2{fill:#000100;}
</style>
<g id="XMLID_8_">
	<path id="XMLID_82_" d="M4984.55,699.41h723.88V542.94h-524.25V438.63h485.59V303.75h-485.59V199.43h512.57V48.36h-712.2V699.41z
		 M4136.64,210.22h280.56v489.18h199.63V210.22h280.56V48.36h-760.75V210.22z M3791.38,552.83h251.79V390.97h-251.79V552.83z
		 M2852.67,699.41h199.63V530.35h313.83c62.05,0,81.83,22.48,81.83,90.82v78.23h199.63V588.8c0-107-49.47-133.08-108.81-143.88v-1.8
		c91.72-21.58,111.5-72.84,111.5-160.06v-41.37c0-116.9-41.37-193.33-195.13-193.33h-602.49V699.41z M3052.3,210.22h312.04
		c62.95,0,91.72,10.79,91.72,68.34v21.58c0,46.76-19.78,68.34-73.73,68.34H3052.3V210.22z M2043.45,338.81
		c0-80.93,19.78-130.39,124.99-130.39h233.8c105.21,0,124.99,49.46,124.99,130.39v70.14c0,94.42-19.79,130.39-114.21,130.39h-255.38
		c-94.42,0-114.2-35.97-114.2-130.39V338.81z M1838.43,471c0,190.64,107,235.6,286.85,235.6h320.13
		c179.85,0,286.86-44.97,286.86-235.6V276.77c0-190.64-107.01-235.6-286.86-235.6h-320.13c-179.85,0-286.85,44.96-286.85,235.6V471z
		 M897.91,699.41h199.63V453.02h420.84v246.39h199.63V48.36h-199.63v232h-420.84v-232H897.91V699.41z M50,210.22h280.57v489.18
		h199.63V210.22h280.56V48.36H50V210.22z"/>
</g>
<g id="XMLID_159_">
	<path id="XMLID_174_" class="st0" d="M6030.26,701.6l8.47-8.52c50.44-50.77,100.09-100.6,147.56-148.11l2.66-2.66l70.53,38.88
		l-4.7,4.7c-37.28,37.29-75.61,75.72-113.93,114.24l-1.47,1.47L6030.26,701.6z"/>
	<path id="XMLID_171_" class="st0" d="M6189.83,548.5l61.41,33.86c-37.92,37.94-75.91,76.03-113.94,114.25l-95.02,0
		C6091.34,647.22,6140.54,597.83,6189.83,548.5 M6188.07,536.11l-5.32,5.32c-47.57,47.61-97.22,97.45-147.57,148.12l-16.94,17.05
		l24.03,0l95.02,0l4.16,0l2.93-2.95c38.36-38.55,76.69-76.99,113.92-114.23l9.4-9.41l-11.65-6.42l-61.41-33.86L6188.07,536.11
		L6188.07,536.11z"/>
</g>
<g id="XMLID_2_">
	<path id="XMLID_169_" class="st0" d="M6089.59,361.9c-46.88-47-95.77-96.14-149.47-150.21l-3.31-3.34
		c-51.82-52.45-103.21-104.46-154.45-156.38l-8.4-8.51l108.8-0.02l1.47,1.49c40.8,41.32,81.96,82.99,123.65,125.18l128.72,127.56
		l-42.54,68.72L6089.59,361.9z"/>
	<path id="XMLID_166_" class="st0" d="M5880.67,48.43c40.8,41.32,81.96,82.99,123.65,125.18l125.93,124.8l-37.11,59.96
		c-49.79-49.92-99.56-99.95-149.46-150.2l-1.64-1.66l-1.66-1.68c-51.82-52.45-103.2-104.46-154.45-156.38L5880.67,48.43
		 M5884.85,38.43l-4.18,0l-94.75,0.02l-23.91,0l16.8,17.02c52.61,53.31,105.15,106.48,154.45,156.38l1.66,1.68l1.66,1.67
		c53.8,54.17,102.69,103.31,149.48,150.22l8.93,8.95l6.65-10.75l37.11-59.96l4.19-6.77l-5.65-5.6L6011.4,166.54
		c-41.67-42.18-82.82-83.83-123.61-125.14L5884.85,38.43L5884.85,38.43z"/>
</g>
<g id="XMLID_1_">
	<path id="XMLID_164_" class="st0" d="M6842.4,1095.75l-1.47-1.49c-19.93-20.17-39.64-39.99-58.57-58.92
		c-43.72-43.72-86.25-85.63-126.41-124.56l-0.27-0.27c-29.24-28.4-57.35-56.24-84.55-83.17c-13.8-13.66-26.83-26.57-39.94-39.48
		c-33.78-33.3-73.73-72.29-113.88-109.04l-6.33-5.79l-42.25-42.25c-46.06-43.26-93.17-88.09-139.99-133.25l-3.42-3.3l52.48-60.3
		l175.82,172.33c47,43.26,91.16,86.35,128.15,122.81c14.27,14.06,28.38,28.04,42.03,41.55c27.24,26.97,52.98,52.45,78.37,77.11l0,0
		c43.14,41.83,88.53,86.55,134.89,132.91c33.79,33.79,69.31,69.66,105.56,106.62l8.34,8.5L6842.4,1095.75z"/>
	<path id="XMLID_161_" class="st0" d="M6278.09,441.22l172.09,168.67c45.36,41.74,87.82,83.06,128.09,122.75
		c42.2,41.59,82.04,81.41,120.44,118.69l-0.04-0.04c-0.06-0.05-0.11-0.11-0.17-0.16l0.12,0.12l0.05,0.05
		c45.23,43.85,90.21,88.23,134.88,132.9c35.4,35.4,70.59,70.97,105.53,106.59l-94.58-0.01c-19.53-19.76-39.06-39.42-58.59-58.94
		c-42.23-42.23-84.42-83.85-126.46-124.61l-0.15-0.15l-0.07-0.07c-43.83-42.57-85.04-83.8-124.51-122.68
		c-39.48-38.91-77.18-75.45-114.02-109.17l-6.24-5.72l-6.05-6.05c-10.65-10.65-24.42-24.41-35.84-35.84l-0.34-0.34
		c-47.29-44.41-93.89-88.79-140-133.25L6278.09,441.22 M6277.51,426.65l-6.97,8l-45.87,52.71l-6.24,7.17l6.84,6.6
		c46.84,45.17,93.94,90,139.98,133.24l0.23,0.23c7.54,7.54,16.1,16.1,24.11,24.11l11.73,11.73l6.05,6.05l0.16,0.16l0.16,0.15
		l6.24,5.72c40.08,36.69,79.99,75.65,113.75,108.92c13.12,12.92,26.16,25.84,39.97,39.51c27.17,26.91,55.27,54.74,84.54,83.17
		l0.02,0.02l0.05,0.05l0.05,0.05l0.15,0.15c40.14,38.92,82.65,80.81,126.35,124.51c18.93,18.93,38.63,38.75,58.55,58.9l2.94,2.97
		l4.18,0l94.58,0.01l23.82,0l-16.68-17.01c-36.24-36.94-71.76-72.82-105.6-106.66c-46.4-46.4-91.8-91.14-134.94-132.96l0,0
		c-25.39-24.64-51.12-50.12-78.36-77.09c-13.64-13.51-27.75-27.48-42.02-41.54c-37.02-36.48-81.2-79.6-128.22-122.88l-171.97-168.55
		L6277.51,426.65L6277.51,426.65z"/>
</g>
<g id="XMLID_13_">
	<path id="XMLID_158_" class="st0" d="M6342.25,171.38l2.78-2.77c40.18-40.06,82.02-81.69,124.33-123.72l1.46-1.45l109.88,0
		l-8.62,8.55c-63.13,62.59-125.05,124.16-184.06,183l-4.51,4.49L6342.25,171.38z"/>
	<path id="XMLID_155_" class="st0" d="M6568.56,48.44c-61.6,61.08-122.99,122.11-184.07,183.01l-35.93-59.3
		c41.44-41.31,82.89-82.56,124.33-123.71L6568.56,48.44 M6592.85,38.44l-24.29,0l-95.68,0l-4.12,0l-2.92,2.9
		c-41.98,41.7-83.82,83.33-124.34,123.73l-5.56,5.55l4.07,6.72l35.93,59.3l6.6,10.89l9.01-8.99
		c58.83-58.67,120.76-120.23,184.05-182.99L6592.85,38.44L6592.85,38.44z"/>
</g>
<g id="XMLID_176_">
	<path id="XMLID_153_" class="st0" d="M5825.43,701.6l212.93-217.42c41.66-45.38,83.22-88.01,118.38-123.72
		c13.22-13.42,26.37-26.71,39.09-39.55l10.63-10.74l50.09,59.38l-3.22,3.25c-11.24,11.35-24.54,24.78-37.94,38.38
		c-32.22,32.72-69.91,71.37-105.09,109.94l-5.58,6.11l-5.9,5.91L6063.96,568c-40.92,43.67-83.13,88.1-125.45,132.07l-1.48,1.53
		H5825.43z"/>
	<path id="XMLID_149_" class="st0" d="M6206.17,317.58l43.62,51.71c-12.88,13-25.54,25.79-37.95,38.38
		c-37.51,38.09-72.74,74.47-105.22,110.08l-5.5,6.03l-5.83,5.83c-10.29,10.29-23.57,23.56-34.59,34.58l-0.34,0.34
		c-41.8,44.61-83.57,88.56-125.45,132.07h-97.58L6042,487.62c40.22-43.82,80.05-84.79,118.32-123.66
		C6175.86,348.18,6191.17,332.73,6206.17,317.58 M6206.76,302.77l-7.7,7.78l-6.46,6.52c-12.82,12.95-26.08,26.35-39.42,39.89
		c-35.18,35.73-76.75,78.37-118.45,123.79L5830.18,689.6l-16.65,17h23.79h97.58h4.25l2.95-3.06
		c42.33-43.97,84.53-88.4,125.45-132.07l0.22-0.22c11.01-11.01,24.28-24.28,34.56-34.55l5.83-5.84l0.16-0.16l0.15-0.17l5.5-6.03
		c35.12-38.49,72.77-77.11,104.96-109.8c13.28-13.48,26.62-26.96,37.93-38.36l6.44-6.5l-5.9-6.99l-43.62-51.71L6206.76,302.77
		L6206.76,302.77z"/>
</g>
<g id="XMLID_12_">
	<path id="XMLID_147_" class="st0" d="M6303.74,352.91c-52.47-54.17-104.91-109.13-155.84-163.36l-42.16-42.16l-5.78-6.32
		c-23.79-26-50.73-54.33-84.77-89.16l-8.31-8.5l107.93,0.02l1.48,1.54c20.2,21.07,38.58,40.62,56.19,59.75l197.83,201.85
		l-63.46,49.55L6303.74,352.91z"/>
	<path id="XMLID_144_" class="st0" d="M6018.78,48.42l93.92,0.02c18.56,19.36,37.32,39.25,56.17,59.73l193.97,197.91l-55.5,43.34
		c-52.06-53.74-103.91-108.06-155.84-163.36l-0.34-0.34c-11.4-11.4-25.13-25.13-35.75-35.75l-6.04-6.04l-5.7-6.23
		C6077.06,108.63,6048.69,79.02,6018.78,48.42 M5995.01,38.42l16.61,16.99c33.99,34.77,60.89,63.06,84.66,89.04l5.7,6.23l0.15,0.16
		l0.16,0.16l6.04,6.04l28.73,28.73l7.02,7.02l0.23,0.23c50.94,54.24,103.38,109.2,155.84,163.35l6.25,6.46l7.08-5.53l55.5-43.34
		l8.82-6.89l-7.83-7.99l-193.86-197.8c-17.6-19.13-35.99-38.68-56.2-59.77l-2.95-3.08l-4.27,0l-93.92-0.02L5995.01,38.42
		L5995.01,38.42z"/>
</g>
<g id="XMLID_152_">
	<path id="XMLID_175_" class="st0" d="M7051.46,1095.75l-1.46-1.43c-164.69-161.73-319.78-315.03-505.43-498.62l-3.63-3.6
		c-29.25-29.06-60.44-60.08-98.17-97.65l-4-3.98l61.81-48.75l80.85,81.52c210.14,207.83,385.71,381.34,572.05,563.93l8.75,8.57
		H7051.46z"/>
	<path id="XMLID_142_" class="st0" d="M6500.19,448.42l77.71,78.35c195.86,193.71,381.19,376.91,572.1,563.98h-96.49
		c-170.68-167.61-335.98-331.04-505.41-498.61l-1.82-1.81l-1.8-1.78c-32.82-32.6-65.51-65.12-98.16-97.64L6500.19,448.42
		 M6501.01,435.04l-7.01,5.53l-53.88,42.49l-8.85,6.98l7.99,7.96c37.36,37.2,68.56,68.23,98.17,97.64l1.81,1.79l1.82,1.8
		c185.57,183.52,340.6,336.76,505.45,498.65l2.92,2.87h4.09H7150h24.49l-17.49-17.14c-186.34-182.59-361.9-356.09-572.04-563.91
		l-77.67-78.32L6501.01,435.04L6501.01,435.04z"/>
</g>
<g id="XMLID_3_">
	<path id="XMLID_180_" class="st0" d="M6330.12,404.57l7.24-7.15c4.64-4.58,9.3-9.19,13.99-13.8
		c36.88-36.34,80.91-79.31,127.85-122.51l222.1-217.68l114.61,0L6807.2,52c-82.72,81.28-162.28,157.73-243.18,233.71l-36.03,36.03
		l-6.12,6.11l-6.3,5.77c-40.61,37.17-82.05,77.66-113.62,108.78c-3.2,3.15-6.4,6.31-9.62,9.49l-3.28,3.24L6330.12,404.57z"/>
	<path id="XMLID_177_" class="st0" d="M6803.69,48.43c-79.7,78.31-160.35,155.92-243.16,233.68l-0.33,0.33
		c-11.4,11.4-25.13,25.13-35.75,35.76l-6.04,6.03l-6.22,5.7c-36.76,33.65-74.38,70.09-113.75,108.91c-3.2,3.15-6.41,6.31-9.62,9.49
		l-51.31-44.02c5.74-5.67,11.53-11.39,17.36-17.13c40.19-39.59,82.53-80.8,127.79-122.45l220.7-216.3L6803.69,48.43 M6828.14,38.43
		l-24.45,0l-100.34,0l-4.08,0l-2.92,2.86l-220.59,216.19c-46.98,43.24-91.03,86.22-127.92,122.57c-4.79,4.71-9.56,9.42-14.3,14.1
		l-3.07,3.04l-7.73,7.63l8.25,7.07l51.31,44.02l6.99,6l6.55-6.47c3.21-3.17,6.42-6.33,9.61-9.48
		c31.53-31.09,72.93-71.53,113.48-108.65l6.22-5.71l0.16-0.14l0.15-0.15l6.04-6.03l14.94-14.94c7.03-7.03,14.3-14.3,20.82-20.82
		l0.21-0.21c80.92-75.99,160.48-152.45,243.22-233.74L6828.14,38.43L6828.14,38.43z"/>
</g>
<g id="XMLID_15_">
	<path id="XMLID_73_" class="st1" d="M6419.28,971.54c0-34.77-33.03-35.94-59.9-35.94c-41.49,0-66.91,0.88-66.91,45.29
		c0,43.53,33.6,40.03,66.91,42.37c28.05,1.75,40.03-3.51,40.03,25.13c0,27.18-24.25,23.67-40.03,23.67
		c-35.05,0-44.12-3.22-44.12-17.82v-11.98h-23.96v14.32c0,34.18,34.77,35.93,68.08,35.93c34.18,0,63.99-1.75,63.99-44.99
		c0-49.97-35.94-43.83-75.38-46.17c-23.96-1.16-31.55,0.88-31.55-26.58c0-18.99,14.02-18.7,42.95-18.7c24.25,0,35.94,0,35.94,15.48
		v5.85h23.96V971.54z M6272.04,937.36h-59.3v-37.11h-23.09v37.11h-20.46v18.7h20.46v90.28c0,35.94,8.18,46.16,44.12,46.16
		c31.55,0,44.12-14.32,44.12-44.7v-11.39h-21.92v11.39c0,14.61,0,26.01-21.62,26.01c-16.94,0-21.33-3.8-21.62-20.45v-97.29h59.3
		V937.36z M6135.93,1035.24v7.6c0,27.76-10.51,30.97-39.44,30.97c-44.99,0-46.75-13.15-46.75-56.39c0-49.09,0.89-63.11,41.79-63.11
		c26.59,0,41.77,0.59,41.77,28.34v4.67h23.09v-4.09c0-43.53-29.22-47.63-66.32-47.63c-55.51,0-64.29,25.42-64.29,75.38
		c0,56.98,4.39,81.52,68.08,81.52c36.53,0,65.16-5.55,65.16-48.79v-8.47H6135.93z M5967.7,1090.75h23.37V937.36h-23.09v94.66
		c0,36.52-16.66,41.78-49.08,41.78c-29.81,0-31.57-13.15-31.57-37.99v-98.46h-23.07v98.46c0,40.32,14.31,56.69,54.93,56.69
		c20.16,0,39.74-3.5,47.92-22.2h0.59V1090.75z M5801.78,1090.75h23.09V871.62h-23.09v84.73h-0.59
		c-6.72-18.7-32.42-20.74-49.36-20.74c-54.94,0-60.2,32.44-60.2,78.6c0,46.75,5.56,78.3,60.2,78.3c20.74,0,40.32-3.21,49.36-21.62
		l0.59,0.58V1090.75z M5759.13,1073.8c-33.03,0-43.55-6.43-43.55-59.6c0-53.76,8.19-59.9,43.55-59.9c37.68,0,42.64,17.83,42.64,59.9
		C5801.78,1061.54,5795.06,1073.8,5759.13,1073.8z M5549.98,1014.2c0-53.47,2.92-59.9,44.12-59.9c41.19,0,44.12,6.43,44.12,59.9
		c0,53.17-2.93,59.6-44.12,59.6C5552.9,1073.8,5549.98,1067.38,5549.98,1014.2z M5526.02,1014.2c0,64.57,11.09,78.3,68.08,78.3
		c56.97,0,68.08-13.73,68.08-78.3c0-64.86-11.11-78.6-68.08-78.6C5537.12,935.6,5526.02,949.34,5526.02,1014.2z M5398.66,937.36
		v153.39h23.09v-95.54c-0.59-27.17,8.76-40.91,37.4-40.91c19.29,0,25.7,6.43,25.7,25.42v10.23h21.92v-11.1
		c0-28.64-13.14-43.25-42.66-43.25c-17.23,0-35.64,4.39-43.53,21.33l-0.59-0.59l1.17-18.98H5398.66z M5306.7,893.53
		c30.68,0,38.27,5.55,38.27,47.63c0,42.66-16.94,42.37-49.97,42.37h-64.28v-90H5306.7z M5205.9,1090.75h24.83v-85.31h85.61
		c53.18,0,53.47-47.92,53.47-67.5c0-37.69-9.94-66.32-52.3-66.32H5205.9V1090.75z M5082.07,937.36h-59.3v-37.11h-23.09v37.11h-20.46
		v18.7h20.46v90.28c0,35.94,8.18,46.16,44.12,46.16c31.55,0,44.12-14.32,44.12-44.7v-11.39H5066v11.39c0,14.61,0,26.01-21.62,26.01
		c-16.94,0-21.33-3.8-21.62-20.45v-97.29h59.3V937.36z M4854.82,937.36h-23.09v153.39h23.09v-89.41c0-35.35,8.18-47.04,45.86-47.04
		c26,0,36.83,4.67,36.83,32.72v103.73h23.07V988.78c0.59-42.66-18.4-53.18-57.86-53.18c-17.53,0-40.01,2.04-47.32,20.46h-0.59
		V937.36z M4685.7,1000.47c1.74-35.35,3.2-46.17,44.99-46.17c35.05,0,40.31,2.63,41.49,46.17H4685.7z M4772.48,1044.3v5.84
		c0,21.62-10.24,23.67-41.79,23.67c-41.49,0-44.99-6.13-44.99-54.63h110.44v-15.49c0-56.69-15.78-68.08-65.45-68.08
		c-54.93,0-68.95,14.9-68.95,78.6c0,58.44,9.05,78.3,68.95,78.3c34.18,0,65.45-2.04,65.45-42.66v-5.55H4772.48z M4420.47,937.36
		h-23.07v153.39h23.07v-92.33c0-31.26,15.78-44.12,46.18-44.12c33.29,0,33.29,13.15,34.18,33.6v102.85h23.07v-94.08
		c0-33.02,14.02-42.37,46.75-42.37c29.81,0,33.61,11.69,33.61,37.69v98.76h23.07v-101.1c0-37.99-13.72-54.05-53.17-54.05
		c-20.74,0-44.42,4.97-54.64,25.42c-5.26-20.16-28.94-25.42-47.34-25.42c-19.57,0-42.95,5.55-51.14,25.42h-0.59V937.36z
		 M4252.23,1000.47c1.74-35.35,3.2-46.17,44.99-46.17c35.07,0,40.31,2.63,41.49,46.17H4252.23z M4339.01,1044.3v5.84
		c0,21.62-10.24,23.67-41.79,23.67c-41.49,0-44.99-6.13-44.99-54.63h110.44v-15.49c0-56.69-15.78-68.08-65.45-68.08
		c-54.93,0-68.95,14.9-68.95,78.6c0,58.44,9.05,78.3,68.95,78.3c34.18,0,65.45-2.04,65.45-42.66v-5.55H4339.01z M4100.91,937.36
		v153.39H4124v-95.54c-0.59-27.17,8.76-40.91,37.4-40.91c19.29,0,25.7,6.43,25.7,25.42v10.23h21.92v-11.1
		c0-28.64-13.14-43.25-42.66-43.25c-17.23,0-35.64,4.39-43.53,21.33l-0.59-0.59l1.17-18.98H4100.91z M4040.2,1090.75h23.37V937.36
		h-23.09v94.66c0,36.52-16.66,41.78-49.08,41.78c-29.81,0-31.57-13.15-31.57-37.99v-98.46h-23.07v98.46
		c0,40.32,14.31,56.69,54.93,56.69c20.16,0,39.74-3.5,47.92-22.2h0.59V1090.75z M3882.46,1035.24v7.6
		c0,27.76-10.51,30.97-39.44,30.97c-44.99,0-46.75-13.15-46.75-56.39c0-49.09,0.89-63.11,41.79-63.11
		c26.59,0,41.77,0.59,41.77,28.34v4.67h23.09v-4.09c0-43.53-29.22-47.63-66.32-47.63c-55.51,0-64.29,25.42-64.29,75.38
		c0,56.98,4.39,81.52,68.08,81.52c36.53,0,65.16-5.55,65.16-48.79v-8.47H3882.46z M3632.12,1000.47
		c1.74-35.35,3.2-46.17,44.99-46.17c35.05,0,40.31,2.63,41.49,46.17H3632.12z M3718.9,1044.3v5.84c0,21.62-10.24,23.67-41.79,23.67
		c-41.49,0-44.99-6.13-44.99-54.63h110.44v-15.49c0-56.69-15.78-68.08-65.45-68.08c-54.93,0-68.95,14.9-68.95,78.6
		c0,58.44,9.05,78.3,68.95,78.3c34.18,0,65.45-2.04,65.45-42.66v-5.55H3718.9z M3500.11,989.66c40.02,3.22,58.72-3.8,58.72,37.99
		c0,42.95-12.85,42.95-59.6,42.95c-46.46,0-55.81,0-55.22-48.21h-24.83c-4.67,63.4,24.25,70.12,80.05,70.12
		c55.23,0,84.45-2.04,84.45-63.98c0-59.32-26.31-57.86-78.31-60.77c-40.91-1.17-60.77,2.34-60.77-39.45
		c0-30.38,6.72-36.52,55.22-36.52c46.46,0,53.77,1.47,54.93,39.74h24.85c2.63-59.6-31.57-61.65-78.89-61.65
		c-54.05,0-80.94,5.25-80.94,63.69C3419.75,991.41,3456.87,986.15,3500.11,989.66z M3265.27,1090.75h23.08V871.62h-23.08v84.73
		h-0.59c-6.72-18.7-32.43-20.74-49.38-20.74c-54.93,0-60.19,32.44-60.19,78.6c0,46.75,5.55,78.3,60.19,78.3
		c20.74,0,40.32-3.21,49.38-21.62l0.59,0.58V1090.75z M3222.61,1073.8c-33.02,0-43.53-6.43-43.53-59.6c0-53.76,8.18-59.9,43.53-59.9
		c37.69,0,42.66,17.83,42.66,59.9C3265.27,1061.54,3258.56,1073.8,3222.61,1073.8z M3121.28,1090.75v-104.6
		c0.29-46.75-28.05-50.84-66.61-50.55c-34.19-0.29-61.36,2.34-61.36,41.79v3.21h23.96v-5.26c-0.29-21.04,21.91-21.04,40.03-21.04
		c26,0,40.9,2.63,40.9,30.68v28.34h-1.46c-3.22-14.02-33.02-15.48-48.21-15.48c-37.98,0-59.89,5.84-59.89,48.21
		c0,40.03,23.96,46.46,58.44,46.46c19.29,0,41.78-0.59,50.54-18.11l0.59,0.59v15.78H3121.28z M3051.16,1073.8
		c-26.58,0-38.56-1.46-38.56-30.68c0-24.83,11.1-26.58,38.56-26.58c29.22,0,46.46-0.29,46.46,28.63
		C3097.61,1073.22,3074.24,1073.8,3051.16,1073.8z M2846.97,1014.2c0-53.47,2.92-59.9,44.12-59.9c41.2,0,44.12,6.43,44.12,59.9
		c0,53.17-2.92,59.6-44.12,59.6C2849.9,1073.8,2846.97,1067.38,2846.97,1014.2z M2823.01,1014.2c0,64.57,11.11,78.3,68.08,78.3
		c56.98,0,68.08-13.73,68.08-78.3c0-64.86-11.1-78.6-68.08-78.6C2834.12,935.6,2823.01,949.34,2823.01,1014.2z M2691.59,871.62
		h-24.83v219.13h136.44v-21.92h-111.61V871.62z M2530.11,1090.75l13.44-17.24l-39.74-31.55c2.04-9.94,2.63-20.45,2.63-30.68
		c0-5.84-0.29-11.39-0.59-17.24h-22.79c0,4.97,0.87,10.23,0.58,15.2c-0.29,4.97-0.58,9.64-0.87,14.61l-85.32-71.59
		c-11.39-9.64-15.19-15.19-15.19-30.68c0-28.92,18.7-29.8,42.37-29.8c32.72,0,36.81,5.55,37.11,33.31v13.73h24.83v-13.73
		c0-46.16-22.2-55.22-61.94-55.22c-42.95,0-67.21,8.47-67.21,51.71c0,24.55,5.55,31.27,19.87,43.25c-28.05,7.89-44.7,6.43-44.7,59.6
		c0,68.37,34.77,68.08,83.27,68.08c35.06,0,69.25,0,81.81-28.64L2530.11,1090.75z M2478.39,1048.68
		c-5.26,23.96-38.87,21.92-62.53,21.92c-51.72,0-58.44-3.22-58.44-45.88c0-34.77,3.22-39.15,35.35-46.46L2478.39,1048.68z
		 M2194.18,937.36h-23.09v19.28l-0.58,0.29c-9.06-18.41-28.05-21.33-49.38-21.33c-52.6,0-60.48,27.47-60.48,78.6
		c0,52.59,10.81,78.3,60.48,78.3c18.11,0,42.95-2.04,49.38-20.74h0.58v35.35c-0.29,30.09-16.94,33.02-44.41,33.02
		c-24.25,0-38.27-1.75-38.27-31.27h-23.08c-2.34,44.41,25.71,49.97,61.35,49.97c37.11,0,67.5-9.06,67.5-49.97V937.36z
		 M2126.68,1073.8c-44.7,0-42.07-22.79-42.07-59.6c0-40.32-0.58-59.9,42.07-59.9c41.5,0,44.41,17.24,44.41,59.9
		C2171.1,1048.38,2171.1,1073.8,2126.68,1073.8z M1919.59,937.36h-23.09v153.39h23.09v-89.41c0-35.35,8.18-47.04,45.87-47.04
		c26.01,0,36.81,4.67,36.81,32.72v103.73h23.08V988.78c0.59-42.66-18.41-53.18-57.85-53.18c-17.53,0-40.03,2.04-47.34,20.46h-0.58
		V937.36z M1856.49,871.62h-23.08v25.42h23.08V871.62z M1856.49,937.36h-23.08v153.39h23.08V937.36z M1807.73,937.36h-59.32v-37.11
		h-23.08v37.11h-20.45v18.7h20.45v90.28c0,35.94,8.18,46.16,44.12,46.16c31.56,0,44.12-14.32,44.12-44.7v-11.39h-21.91v11.39
		c0,14.61,0,26.01-21.62,26.01c-16.95,0-21.33-3.8-21.62-20.45v-97.29h59.32V937.36z M1667.22,937.36v-20.74
		c0-20.46,3.22-28.05,26.3-28.05c4.67,0,9.64,0.29,14.32,0.58v-18.7c-4.67-0.29-9.64-0.58-14.32-0.58
		c-37.69,0-49.38,11.68-49.38,49.08v18.41h-23.37v18.7h23.37v134.69h23.08V956.06h40.62v-18.7H1667.22z M1598.58,871.62h-23.08
		v25.42h23.08V871.62z M1598.58,937.36h-23.08v153.39h23.08V937.36z M1439.39,871.62h-24.83v219.13H1551v-21.92h-111.61V871.62z
		 M1256.86,1035.24v7.6c0,27.76-10.52,30.97-39.44,30.97c-45,0-46.75-13.15-46.75-56.39c0-49.09,0.87-63.11,41.78-63.11
		c26.58,0,41.78,0.59,41.78,28.34v4.67h23.08v-4.09c0-43.53-29.21-47.63-66.33-47.63c-55.51,0-64.28,25.42-64.28,75.38
		c0,56.98,4.38,81.52,68.08,81.52c36.52,0,65.16-5.55,65.16-48.79v-8.47H1256.86z M1112.54,871.62h-23.09v25.42h23.09V871.62z
		 M1112.54,937.36h-23.09v153.39h23.09V937.36z M1063.78,937.36h-59.32v-37.11h-23.08v37.11h-20.45v18.7h20.45v90.28
		c0,35.94,8.18,46.16,44.12,46.16c31.56,0,44.12-14.32,44.12-44.7v-11.39h-21.91v11.39c0,14.61,0,26.01-21.62,26.01
		c-16.95,0-21.33-3.8-21.62-20.45v-97.29h59.32V937.36z M836.8,1000.47c1.76-35.35,3.22-46.17,45-46.17
		c35.06,0,40.32,2.63,41.49,46.17H836.8z M923.58,1044.3v5.84c0,21.62-10.22,23.67-41.78,23.67c-41.49,0-45-6.13-45-54.63h110.45
		v-15.49c0-56.69-15.78-68.08-65.45-68.08c-54.93,0-68.96,14.9-68.96,78.6c0,58.44,9.06,78.3,68.96,78.3
		c34.18,0,65.45-2.04,65.45-42.66v-5.55H923.58z M671.48,871.62h-23.09v219.13h23.09v-89.41c0-35.35,8.18-47.04,45.87-47.04
		c26.01,0,36.81,4.67,36.81,32.72v103.73h23.08V988.78c0.59-42.66-18.41-53.18-57.85-53.18c-17.53,0-40.03,2.04-47.34,20.46h-0.58
		V871.62z M622.43,937.36h-59.32v-37.11h-23.08v37.11h-20.45v18.7h20.45v90.28c0,35.94,8.18,46.16,44.12,46.16
		c31.56,0,44.12-14.32,44.12-44.7v-11.39h-21.91v11.39c0,14.61,0,26.01-21.62,26.01c-16.95,0-21.33-3.8-21.62-20.45v-97.29h59.32
		V937.36z M395.16,937.36h-23.08v153.39h23.08v-89.41c0-35.35,8.19-47.04,45.88-47.04c26.01,0,36.81,4.67,36.81,32.72v103.73h23.08
		V988.78c0.59-42.66-18.41-53.18-57.85-53.18c-17.53,0-40.03,2.04-47.34,20.46h-0.59V937.36z M353.13,937.36h-23.96l-34.48,136.44
		h-0.59l-47.34-136.44H223.1l55.52,153.39h8.18c-5.25,17.53-7.88,49.67-31.84,49.67c-2.92,0-5.55-0.29-8.19-0.88v17.82
		c3.22,0.59,6.73,1.47,10.52,1.47c36.81,0,43.53-28.34,51.72-57.27L353.13,937.36z M131.42,989.66c40.03,3.22,58.73-3.8,58.73,37.99
		c0,42.95-12.86,42.95-59.61,42.95c-46.46,0-55.81,0-55.22-48.21H50.49c-4.67,63.4,24.25,70.12,80.05,70.12
		c55.23,0,84.44-2.04,84.44-63.98c0-59.32-26.29-57.86-78.3-60.77c-40.91-1.17-60.77,2.34-60.77-39.45
		c0-30.38,6.72-36.52,55.22-36.52c46.46,0,53.76,1.47,54.93,39.74h24.83c2.63-59.6-31.55-61.65-78.89-61.65
		c-54.05,0-80.94,5.25-80.94,63.69C51.07,991.41,88.18,986.15,131.42,989.66z"/>
</g>
<g id="XMLID_27_">
	<path class="st2" d="M7136.97,92.14c0,32.55-25.55,58.1-58.8,58.1c-32.9,0-59.15-25.55-59.15-58.1c0-31.85,26.25-57.4,59.15-57.4
		C7111.42,34.74,7136.97,60.29,7136.97,92.14z M7033.72,92.14c0,25.55,18.9,45.85,44.8,45.85c25.2,0,43.75-20.3,43.75-45.5
		c0-25.55-18.55-46.2-44.1-46.2S7033.72,66.94,7033.72,92.14z M7069.07,122.24h-13.3v-57.4c5.25-1.05,12.6-1.75,22.05-1.75
		c10.85,0,15.75,1.75,19.95,4.2c3.15,2.45,5.6,7,5.6,12.6c0,6.3-4.9,11.2-11.9,13.3v0.7c5.6,2.1,8.75,6.3,10.5,14
		c1.75,8.75,2.8,12.25,4.2,14.35h-14.35c-1.75-2.1-2.8-7.35-4.55-14c-1.05-6.3-4.55-9.1-11.9-9.1h-6.3V122.24z M7069.42,89.69h6.3
		c7.35,0,13.3-2.45,13.3-8.4c0-5.25-3.85-8.75-12.25-8.75c-3.5,0-5.95,0.35-7.35,0.7V89.69z"/>
</g>
<g>
</g>
<g>
</g>
<g>
</g>
<g>
</g>
<g>
</g>
<g>
</g>
</svg>
