<?xml version="1.0" encoding="utf-8"?>
<!-- Generator: Adobe Illustrator 24.1.1, SVG Export Plug-In . SVG Version: 6.00 Build 0)  -->
<svg version="1.1" id="Layer_1" xmlns="http://www.w3.org/2000/svg" xmlns:xlink="http://www.w3.org/1999/xlink" x="0px" y="0px"
	 viewBox="0 0 6000 1452" style="enable-background:new 0 0 6000 1452;" xml:space="preserve">
<style type="text/css">
	.st0{fill:#091A2D;}
	.st1{fill:#00BE00;}
	.st2{fill:none;stroke:#00BE00;stroke-width:50;stroke-miterlimit:10;}
</style>
<g id="XMLID_5_">
	<path id="XMLID_37_" class="st0" d="M5753.96,359.34l-87.38,411.24c-5.14,25.7-21,38.56-47.55,38.56h-127.22
		c-48.84,0-82.25-10.06-100.24-30.2c-17.99-20.12-26.98-47.75-26.98-82.89c0-17.13,1.48-35.12,4.5-53.97
		c2.98-18.83,6.62-38.56,10.91-59.12c6.85-31.69,14.78-61.24,23.78-88.68c8.99-27.41,20.99-51.18,35.99-71.33
		c14.97-20.11,34.48-35.76,58.46-46.91c23.98-11.12,53.98-16.71,89.96-16.71H5753.96z M5975,25.21h-150.35l-46.26,218.46h-203.05
		c-58.27,0-107.11,6.87-146.5,20.57c-39.41,13.71-72.41,34.05-98.95,61.04c-26.56,26.98-47.99,60.84-64.25,101.52
		c-16.3,40.7-30.02,88.47-41.14,143.29c-4.29,23.13-7.93,45.42-10.91,66.83c-3.02,21.42-4.51,41.99-4.51,61.69
		c0,34.28,4.29,65.34,12.86,93.17c8.56,27.85,22.05,51.63,40.47,71.33c18.42,19.72,42.41,34.92,71.97,45.62
		c29.56,10.72,65.75,16.06,108.59,16.06h224.89c45.41,0,77.95-9.42,97.68-28.27c19.7-18.83,33.83-47.97,42.41-87.39L5975,25.21z
		 M4434.17,924.79h150.37l111.8-526.9c5.14-25.7,20.99-38.56,47.55-38.56h137.51c41.12,0,70.87,8.36,89.31,25.06
		c18.41,16.71,27.63,41.35,27.63,73.89c0,17.15-2.56,36.43-7.7,57.83l-87.4,408.67h150.35l96.39-448.5c1.71-7.71,3-17.13,3.85-28.27
		c0.84-11.13,1.29-21.4,1.29-30.84c0-30.84-5.79-57.19-17.36-79.04c-11.56-21.84-27.84-39.84-48.82-53.97
		c-21-14.14-45.84-24.41-74.53-30.84c-28.73-6.42-59.77-9.64-93.18-9.64h-226.18c-45.42,0-77.97,9.64-97.66,28.92
		c-19.71,19.28-33.85,48.2-42.41,86.74L4434.17,924.79z M4231.14,616.37L4199,770.57c-5.12,25.7-20.99,38.56-47.52,38.56h-212.06
		c-38.56,0-57.83-18.83-57.83-56.54c0-12.85,2.14-27.83,6.43-44.98c7.7-33.41,18.63-56.97,32.77-70.68
		c14.14-13.69,34.04-20.56,59.77-20.56H4231.14z M3882.88,243.68l-24.42,115.66h332.83c52.26,0,78.4,22.29,78.4,66.83
		c0,9.44-1.29,19.72-3.87,30.84l-10.25,43.7h-308.44c-64.26,0-112.45,17.14-144.58,51.4c-32.13,34.28-55.48,83.53-70.04,147.78
		c-2.56,12.85-4.07,25.5-4.5,37.91c-0.44,12.43-0.64,24.22-0.64,35.34c0,48.84,11.98,86.32,35.98,112.45
		c23.98,26.14,59.54,39.19,106.67,39.19h330.26c45.42,0,77.95-9.64,97.68-28.92c19.7-19.28,33.85-48.19,42.43-86.74l78.37-364.98
		c3.42-14.55,5.16-31.26,5.16-50.11c0-41.13-12.45-76.47-37.27-106.02c-24.86-29.56-63.83-44.34-116.96-44.34H3882.88z
		 M3637.42,924.79l29.56-134.94h-483.2c-19.72,0-33.86-2.34-42.42-7.07c-8.57-4.7-12.85-13.92-12.85-27.63
		c0-7.71,1.28-17.55,3.85-29.56l149.07-700.38h-169.63L2949.9,789.85c-1.73,6.87-3.02,13.72-3.86,20.56
		c-0.86,6.87-1.28,13.3-1.28,19.28c0,32.57,9.64,56.54,28.91,71.97c19.28,15.42,45.18,23.13,77.76,23.13H3637.42z M2403.72,644.64
		h458.79l28.27-132.37h-458.79L2403.72,644.64z M2149.28,616.37l-32.12,154.21c-5.14,25.7-21,38.56-47.55,38.56h-212.04
		c-38.56,0-57.83-18.83-57.83-56.54c0-12.85,2.14-27.83,6.43-44.98c7.7-33.41,18.63-56.97,32.77-70.68
		c14.14-13.69,34.05-20.56,59.75-20.56H2149.28z M1801.02,243.68l-24.42,115.66h332.84c52.25,0,78.39,22.29,78.39,66.83
		c0,9.44-1.28,19.72-3.85,30.84l-10.28,43.7h-308.42c-64.26,0-112.45,17.14-144.58,51.4c-32.13,34.28-55.48,83.53-70.04,147.78
		c-2.56,12.85-4.07,25.5-4.5,37.91c-0.44,12.43-0.64,24.22-0.64,35.34c0,48.84,11.98,86.32,35.98,112.45
		c23.98,26.14,59.54,39.19,106.67,39.19h330.27c45.41,0,77.96-9.64,97.67-28.92c19.7-19.28,33.83-48.19,42.41-86.74l78.39-364.98
		c3.42-14.55,5.14-31.26,5.14-50.11c0-41.13-12.43-76.47-37.27-106.02c-24.86-29.56-63.84-44.34-116.95-44.34H1801.02z
		 M1118.63,518.69c11.98-58.25,33.83-100.66,65.54-127.22c31.69-26.55,79.68-39.84,143.93-39.84c19.71,0,38.56,1.73,56.54,5.13
		c18,3.43,33.61,8.8,46.91,16.07c13.26,7.29,23.98,16.92,32.12,28.91c8.13,12.01,12.21,26.99,12.21,44.98
		c0,4.3-0.23,9.44-0.64,15.43c-0.44,6-1.08,11.57-1.93,16.71c-1.73,9.44-5.59,18.43-11.57,26.98c-6,8.58-16.29,12.85-30.84,12.85
		H1118.63z M1511.88,924.79l24.41-115.66h-332.84c-46.26,0-77.55-8.56-93.81-25.7c-16.29-17.13-24.42-40.68-24.42-70.68
		c0-24.84,2.99-50.97,8.99-78.39h395.82c38.55,0,68.53-9.64,89.96-28.92c21.4-19.28,35.98-48.19,43.69-86.74
		c3.42-14.55,5.56-28.47,6.42-41.76c0.85-13.27,1.29-25.91,1.29-37.91c0-38.56-7.29-70.88-21.85-97.03
		c-14.58-26.13-34.91-47.11-61.04-62.98c-26.15-15.84-56.99-26.98-92.53-33.41c-35.56-6.43-74.33-9.64-116.3-9.64
		c-58.27,0-108.59,4.71-151,14.14c-42.41,9.43-79.03,26.56-109.87,51.4c-30.84,24.86-56.54,58.91-77.1,102.17
		c-20.57,43.27-38.14,98.75-52.69,166.42c-6,29.13-10.73,56.54-14.14,82.25c-3.43,25.7-5.14,49.7-5.14,71.97
		c0,31.71,3.85,59.98,11.57,84.82c7.71,24.86,20.12,45.84,37.27,62.97c17.13,17.15,39.4,30.21,66.83,39.2
		c27.41,8.99,61.24,13.49,101.52,13.49H1511.88z M25,924.79h565.45c75.38,0,132.15-19.7,170.28-59.12
		c38.11-39.39,62.33-92.53,72.61-159.36c1.71-11.98,2.77-23.55,3.22-34.7c0.42-11.12,0.64-21.85,0.64-32.12
		c0-48.84-13.07-88.23-39.2-118.23c-26.15-29.98-64.48-53.54-115.01-70.68L388.69,346.49c-24-8.56-40.28-18.42-48.84-29.56
		c-8.58-11.12-12.85-23.55-12.85-37.27c0-6.85,0.42-14.34,1.28-22.49c0.85-8.14,2.13-15.63,3.85-22.49
		c5.99-29.98,16.49-49.89,31.49-59.76c14.98-9.84,36.19-14.77,63.61-14.77h472.92l28.27-134.94h-517.9
		c-41.98,0-77.75,4.5-107.3,13.49C273.67,47.7,248.82,61,228.69,78.54c-20.14,17.57-35.78,39-46.91,64.26
		c-11.15,25.28-19.28,54.2-24.42,86.74c-1.73,13.72-2.79,26.79-3.21,39.2c-0.44,12.43-0.64,24.64-0.64,36.62
		c0,41.99,9.42,78.61,28.27,109.88c18.83,31.28,49.68,54.19,92.53,68.75l318.71,111.8c27.41,9.44,46.04,20.14,55.9,32.13
		c9.84,12,14.78,24.86,14.78,38.55c0,6-0.44,12.65-1.28,19.92c-0.86,7.29-2.15,14.35-3.86,21.2c-1.73,7.71-4.3,16.28-7.7,25.7
		c-3.43,9.44-9,18.21-16.71,26.35c-7.71,8.15-18,15.22-30.84,21.2c-12.85,6-29.56,8.99-50.12,8.99H54.56L25,924.79z"/>
</g>
<g id="XMLID_83_">
	<path id="XMLID_102_" class="st1" d="M5625,218.13h92.72c7.66,0,13.99-0.73,19.01-2.19c5.01-1.46,9.16-3.64,12.44-6.56
		c3.28-2.91,5.84-6.52,7.66-10.8c1.82-4.28,3.28-9.16,4.37-14.63c0.36-1.82,0.59-3.56,0.69-5.2c0.09-1.64,0.14-3.19,0.14-4.65
		c0-5.47-1.05-10.07-3.15-13.81c-2.1-3.74-4.97-6.97-8.62-9.71c-3.65-2.73-7.84-5.1-12.58-7.11c-4.74-2.01-9.85-3.83-15.32-5.47
		l-26.53-8.48c-1.82-0.55-3.78-1.18-5.88-1.91c-2.1-0.73-4.06-1.68-5.88-2.87c-1.83-1.18-3.38-2.6-4.65-4.24
		c-1.28-1.64-1.91-3.64-1.91-6.02c0-0.55,0.04-1.27,0.14-2.19c0.09-0.91,0.23-1.82,0.41-2.74c0.91-4.74,2.69-7.89,5.33-9.44
		c2.64-1.55,6.61-2.33,11.9-2.33h76.86l5.19-24.62h-81.78c-8.03,0-14.95,0.55-20.79,1.64c-5.84,1.09-10.8,2.97-14.91,5.61
		c-4.1,2.65-7.34,6.2-9.71,10.67c-2.37,4.47-4.1,9.98-5.2,16.55c-0.37,1.83-0.55,3.6-0.55,5.33c0,1.74,0,3.42,0,5.06
		c0,7.84,2.69,14.59,8.07,20.24c5.38,5.65,13.99,10.39,25.85,14.22l23.52,7.66c3.1,1.09,6.25,2.19,9.44,3.28
		c3.19,1.09,6.11,2.32,8.75,3.69c2.64,1.37,4.79,2.87,6.43,4.51c1.64,1.64,2.46,3.47,2.46,5.47c0,0.73-0.05,1.69-0.14,2.87
		c-0.1,1.19-0.32,2.24-0.69,3.15c-1.09,4.74-3.28,7.66-6.56,8.75s-6.57,1.64-9.85,1.64h-81.51L5625,218.13z M5533.1,218.13h32
		l17.5-81.78c2.73-12.95,7.34-22.61,13.81-28.99c6.47-6.38,16.18-9.57,29.13-9.57h13.4l5.2-24.62h-21.61
		c-10.39,0-19.51,0.91-27.35,2.74c-7.84,1.83-14.55,4.83-20.1,9.03c-5.56,4.2-10.22,9.8-13.95,16.82
		c-3.74,7.02-6.7,15.73-8.89,26.12L5533.1,218.13z M5413.31,122.67c2.91-6.2,6.47-11.26,10.67-15.18c4.19-3.92,9.3-6.79,15.32-8.62
		c6.02-1.82,13.13-2.73,21.33-2.73c12.76,0,22.02,2.19,27.76,6.56c5.74,4.38,8.62,11.67,8.62,21.88c0,2.92-0.23,6.11-0.69,9.57
		c-0.46,3.47-1.14,7.21-2.05,11.21c-1.83,8.94-4.15,16.55-6.97,22.84c-2.83,6.29-6.43,11.44-10.8,15.46
		c-4.38,4.01-9.58,6.93-15.59,8.75c-6.02,1.83-13.13,2.74-21.33,2.74c-12.77,0-21.98-2.23-27.63-6.7
		c-5.65-4.47-8.48-11.8-8.48-22.02c0-3.1,0.23-6.33,0.68-9.71c0.45-3.37,1.14-7.15,2.05-11.35
		C5408.02,136.44,5410.39,128.87,5413.31,122.67z M5428.89,74.12c-9.85,1.74-18.42,5.2-25.71,10.39
		c-7.3,5.2-13.36,12.44-18.19,21.74c-4.83,9.3-8.8,21.43-11.9,36.38c-0.92,4.92-1.6,9.62-2.05,14.09
		c-0.46,4.47-0.69,8.62-0.69,12.44c0,9.3,1.46,17.19,4.38,23.66c2.92,6.48,7.2,11.72,12.85,15.73c5.65,4.01,12.62,6.89,20.93,8.62
		c8.29,1.73,17.82,2.6,28.58,2.6c12.95,0,24.38-0.87,34.33-2.6c9.94-1.73,18.5-5.2,25.71-10.39c7.2-5.2,13.27-12.49,18.19-21.88
		c4.92-9.39,8.93-21.65,12.03-36.79c0.91-4.92,1.6-9.57,2.05-13.95c0.45-4.38,0.69-8.48,0.69-12.31c0-9.3-1.46-17.14-4.38-23.52
		c-2.92-6.38-7.2-11.58-12.85-15.59c-5.65-4.01-12.68-6.88-21.06-8.62c-8.39-1.73-17.96-2.6-28.72-2.6
		C5450.14,71.53,5438.74,72.39,5428.89,74.12z M5350.13,218.13l5.19-24.62h-7.93c-9.3,0-16.32-1.37-21.06-4.1
		c-4.74-2.73-7.11-7.75-7.11-15.04c0-1.46,0.09-3.05,0.27-4.79c0.18-1.73,0.45-3.51,0.82-5.33l14.22-66.46h41.3l5.2-24.62h-41.3
		l9.85-46.5h-32l-9.85,46.5h-19.97l-5.2,24.62h19.97l-15.59,73.03c-0.91,4.2-1.37,8.3-1.37,12.31c0,12.03,4.33,20.88,12.99,26.53
		c8.66,5.65,20.1,8.48,34.33,8.48H5350.13z M5274.91,73.17h-32l-23.79,112.14c-1.09,5.47-4.47,8.21-10.12,8.21h-31.46
		c-8.75,0-15.04-1.78-18.87-5.33c-3.83-3.56-5.74-8.8-5.74-15.73c0-1.82,0.09-3.74,0.27-5.74c0.18-2,0.55-4.19,1.09-6.56l18.6-86.98
		h-32l-20.24,95.46c-0.37,1.83-0.64,3.92-0.82,6.29c-0.19,2.37-0.27,4.56-0.27,6.56c0,6.56,1.23,12.17,3.69,16.82
		c2.46,4.65,5.92,8.44,10.4,11.35c4.47,2.92,9.71,5.06,15.73,6.43c6.02,1.37,12.58,2.05,19.7,2.05h50.33
		c9.66,0,16.59-2.01,20.79-6.02c4.19-4.01,7.2-10.21,9.03-18.6L5274.91,73.17z M5011.24,97.78h35.28c10.57,0,17.78,2.15,21.61,6.43
		c3.83,4.28,5.75,10.17,5.75,17.64c0,3.47-0.32,7.16-0.96,11.08c-0.64,3.92-1.42,8.07-2.33,12.45c-1.46,6.93-3.15,13.31-5.06,19.15
		c-1.91,5.84-4.52,10.9-7.79,15.18c-3.28,4.29-7.48,7.66-12.58,10.12c-5.1,2.46-11.49,3.69-19.15,3.69h-27.08
		c-4.37,0-6.56-1.82-6.56-5.47c0-1.09,0.09-2.01,0.27-2.74L5011.24,97.78z M5028.75,218.13c12.21,0,22.56-1.46,31.04-4.38
		c8.48-2.92,15.59-7.29,21.33-13.13c5.75-5.83,10.35-13.13,13.82-21.88c3.46-8.75,6.38-18.96,8.75-30.63
		c0.91-4.92,1.68-9.62,2.33-14.09c0.63-4.46,0.96-8.79,0.96-12.99c0-7.29-0.92-13.85-2.73-19.69c-1.83-5.83-4.74-10.85-8.75-15.04
		c-4.01-4.19-9.21-7.43-15.59-9.71c-6.38-2.28-14.05-3.42-22.97-3.42h-40.48l9.85-46.5h-32l-35.56,166.84
		c-0.55,2.19-0.82,4.38-0.82,6.56c0,5.29,1.64,9.62,4.92,12.99c3.28,3.38,8.38,5.06,15.32,5.06H5028.75z M4963.11,54.02l6.29-29.54
		h-32l-6.29,29.54H4963.11z M4896.37,218.13h32l30.91-144.96h-32L4896.37,218.13z M4803.65,218.13h32l17.5-81.78
		c2.73-12.95,7.34-22.61,13.81-28.99c6.47-6.38,16.18-9.57,29.13-9.57h13.4l5.2-24.62h-21.61c-10.39,0-19.51,0.91-27.35,2.74
		c-7.84,1.83-14.55,4.83-20.1,9.03c-5.56,4.2-10.22,9.8-13.95,16.82c-3.74,7.02-6.7,15.73-8.89,26.12L4803.65,218.13z
		 M4788.61,218.13l5.19-24.62h-7.93c-9.3,0-16.32-1.37-21.06-4.1c-4.74-2.73-7.11-7.75-7.11-15.04c0-1.46,0.09-3.05,0.27-4.79
		c0.18-1.73,0.45-3.51,0.82-5.33l14.22-66.46h41.3l5.2-24.62h-41.3l9.85-46.5h-32l-9.85,46.5h-19.97l-5.2,24.62h19.97l-15.59,73.03
		c-0.91,4.2-1.37,8.3-1.37,12.31c0,12.03,4.33,20.88,12.99,26.53c8.66,5.65,20.1,8.48,34.33,8.48H4788.61z M4562.41,218.13h92.72
		c7.66,0,13.99-0.73,19.01-2.19c5.01-1.46,9.16-3.64,12.44-6.56c3.28-2.91,5.84-6.52,7.66-10.8c1.82-4.28,3.28-9.16,4.37-14.63
		c0.36-1.82,0.59-3.56,0.69-5.2c0.09-1.64,0.14-3.19,0.14-4.65c0-5.47-1.05-10.07-3.15-13.81c-2.1-3.74-4.97-6.97-8.62-9.71
		c-3.65-2.73-7.84-5.1-12.58-7.11c-4.75-2.01-9.85-3.83-15.32-5.47l-26.53-8.48c-1.82-0.55-3.78-1.18-5.88-1.91
		c-2.1-0.73-4.06-1.68-5.88-2.87c-1.83-1.18-3.38-2.6-4.65-4.24c-1.28-1.64-1.91-3.64-1.91-6.02c0-0.55,0.04-1.27,0.14-2.19
		c0.09-0.91,0.23-1.82,0.41-2.74c0.91-4.74,2.69-7.89,5.33-9.44c2.64-1.55,6.61-2.33,11.9-2.33h76.86l5.19-24.62h-81.78
		c-8.03,0-14.95,0.55-20.79,1.64c-5.84,1.09-10.8,2.97-14.91,5.61c-4.1,2.65-7.34,6.2-9.71,10.67c-2.37,4.47-4.1,9.98-5.2,16.55
		c-0.37,1.83-0.55,3.6-0.55,5.33c0,1.74,0,3.42,0,5.06c0,7.84,2.69,14.59,8.07,20.24c5.38,5.65,13.99,10.39,25.85,14.22l23.52,7.66
		c3.1,1.09,6.25,2.19,9.44,3.28c3.19,1.09,6.11,2.32,8.75,3.69c2.64,1.37,4.79,2.87,6.43,4.51c1.64,1.64,2.46,3.47,2.46,5.47
		c0,0.73-0.05,1.69-0.14,2.87c-0.1,1.19-0.32,2.24-0.69,3.15c-1.09,4.74-3.28,7.66-6.56,8.75s-6.57,1.64-9.85,1.64h-81.51
		L4562.41,218.13z M4575.54,54.02l6.29-29.54h-32l-6.29,29.54H4575.54z M4508.8,218.13h32l30.91-144.96h-32L4508.8,218.13z
		 M4429.49,55.39c7.84,0,14.36,0.87,19.55,2.6c5.2,1.73,9.34,4.2,12.45,7.38c3.1,3.19,5.33,7.07,6.7,11.62
		c1.37,4.56,2.05,9.57,2.05,15.04c0,4.56-0.37,9.35-1.09,14.36c-0.73,5.02-1.74,10.35-3.01,16c-2.01,9.67-4.47,18.56-7.39,26.67
		c-2.92,8.12-6.84,15.18-11.76,21.2c-4.92,6.02-11.08,10.71-18.46,14.09c-7.38,3.38-16.55,5.06-27.49,5.06h-39.66
		c-4.2,0-7.2-0.5-9.03-1.5c-1.83-1-2.73-2.96-2.73-5.88c0-1.64,0.27-3.74,0.82-6.29l22.7-106.67c1.27-5.47,3.01-9.11,5.19-10.94
		c2.19-1.82,6.02-2.73,11.49-2.73H4429.49z M4412.26,218.13c15.68,0,28.81-2.55,39.38-7.66c10.58-5.1,19.28-11.9,26.12-20.38
		c6.84-8.48,12.17-18.33,16-29.54c3.83-11.21,7.02-23.02,9.57-35.42c1.27-6.02,2.28-12.08,3.01-18.19
		c0.73-6.11,1.09-12.08,1.09-17.91c0-8.39-0.96-16.36-2.87-23.93c-1.91-7.56-5.29-14.18-10.12-19.83
		c-4.83-5.65-11.21-10.16-19.15-13.54c-7.93-3.37-17.91-5.06-29.95-5.06h-71.39c-9.67,0-17.14,2.05-22.43,6.15
		c-5.29,4.1-9.12,11.62-11.49,22.56l-28.44,134.02c-0.37,1.46-0.64,2.92-0.82,4.38c-0.19,1.46-0.27,2.83-0.27,4.1
		c0,6.93,2.05,12.03,6.15,15.32c4.1,3.28,9.62,4.92,16.55,4.92H4412.26z"/>
</g>
<g id="XMLID_116_">
	<path id="XMLID_199_" class="st0" d="M5759.83,1348.24h130.95c10.82,0,19.76-1.03,26.85-3.09c7.08-2.06,12.94-5.15,17.58-9.27
		c4.64-4.12,8.24-9.2,10.82-15.26c2.57-6.05,4.63-12.94,6.18-20.67c0.51-2.57,0.83-5.02,0.97-7.34c0.13-2.32,0.19-4.5,0.19-6.57
		c0-7.73-1.48-14.23-4.44-19.51c-2.96-5.28-7.02-9.85-12.17-13.71c-5.16-3.86-11.08-7.21-17.77-10.04
		c-6.7-2.83-13.91-5.41-21.63-7.73l-37.47-11.98c-2.58-0.77-5.35-1.67-8.31-2.7c-2.96-1.03-5.73-2.38-8.3-4.06
		c-2.58-1.67-4.77-3.67-6.57-5.99c-1.8-2.32-2.7-5.15-2.7-8.5c0-0.77,0.06-1.8,0.19-3.09c0.13-1.28,0.32-2.57,0.58-3.86
		c1.29-6.69,3.8-11.14,7.53-13.33c3.73-2.19,9.33-3.28,16.8-3.28h108.55l7.34-34.77h-115.5c-11.34,0-21.12,0.77-29.36,2.32
		c-8.24,1.54-15.26,4.19-21.05,7.92c-5.79,3.74-10.37,8.76-13.71,15.07c-3.35,6.32-5.79,14.1-7.34,23.37
		c-0.52,2.58-0.77,5.09-0.77,7.53c0,2.45,0,4.83,0,7.15c0,11.08,3.8,20.61,11.4,28.59c7.59,7.99,19.76,14.68,36.5,20.09l33.22,10.82
		c4.38,1.55,8.82,3.09,13.33,4.64c4.5,1.54,8.62,3.28,12.36,5.22c3.73,1.93,6.76,4.06,9.08,6.37c2.32,2.32,3.48,4.89,3.48,7.73
		c0,1.03-0.07,2.38-0.19,4.06c-0.13,1.68-0.45,3.16-0.97,4.44c-1.54,6.7-4.64,10.82-9.27,12.36c-4.64,1.54-9.27,2.32-13.91,2.32
		h-115.12L5759.83,1348.24z M5739.75,1348.24l7.34-34.77h-11.2c-13.13,0-23.05-1.93-29.74-5.79c-6.7-3.86-10.04-10.94-10.04-21.25
		c0-2.06,0.13-4.31,0.39-6.76c0.25-2.44,0.64-4.96,1.16-7.53l20.09-93.87h58.33l7.34-34.77h-58.33l13.91-65.67h-45.2l-13.91,65.67
		h-28.2l-7.34,34.77h28.2l-22.02,103.14c-1.29,5.93-1.93,11.72-1.93,17.38c0,17,6.11,29.49,18.35,37.47
		c12.23,7.99,28.39,11.98,48.48,11.98H5739.75z M5626.19,1178.27l7.34-34.77h-85.75c-18.29,0-33.68,2.06-46.16,6.18
		c-12.49,4.12-22.86,10.24-31.1,18.35c-8.25,8.11-14.81,18.29-19.7,30.52c-4.89,12.23-9.02,26.59-12.36,43.07
		c-1.29,6.7-2.38,13.27-3.28,19.7c-0.91,6.44-1.35,12.62-1.35,18.54c0,10.3,1.35,19.64,4.06,28.01c2.71,8.37,6.95,15.59,12.75,21.63
		c5.79,6.05,13.39,10.69,22.79,13.91c9.4,3.22,20.92,4.83,34.57,4.83h86.53l7.34-34.77h-79.19c-16.23,0-27.3-3.15-33.22-9.47
		c-5.93-6.31-8.88-14.87-8.88-25.69c0-4.89,0.45-10.1,1.35-15.64c0.9-5.54,1.99-11.26,3.28-17.19c2.06-9.52,4.44-18.41,7.15-26.65
		c2.7-8.24,6.43-15.39,11.2-21.44c4.76-6.05,11.01-10.75,18.74-14.1c7.73-3.34,17.51-5.02,29.36-5.02H5626.19z M5430.73,1143.51
		h-45.2l-33.61,158.38c-1.55,7.73-6.31,11.59-14.29,11.59h-44.42c-12.36,0-21.25-2.51-26.65-7.53c-5.41-5.02-8.11-12.42-8.11-22.21
		c0-2.57,0.13-5.27,0.39-8.11c0.25-2.83,0.77-5.92,1.54-9.27l26.27-122.84h-45.2l-28.59,134.82c-0.52,2.58-0.91,5.54-1.16,8.89
		c-0.26,3.35-0.39,6.44-0.39,9.27c0,9.27,1.74,17.19,5.22,23.76c3.48,6.57,8.37,11.92,14.68,16.03c6.31,4.12,13.71,7.15,22.21,9.08
		c8.5,1.93,17.77,2.9,27.81,2.9h71.08c13.65,0,23.43-2.83,29.36-8.5c5.92-5.66,10.17-14.42,12.75-26.27L5430.73,1143.51z
		 M5153.37,1178.27l-26.27,123.61c-1.54,7.73-6.31,11.59-14.29,11.59h-38.24c-14.68,0-24.72-3.02-30.13-9.08
		c-5.41-6.05-8.11-14.35-8.11-24.91c0-5.15,0.45-10.56,1.35-16.23c0.9-5.66,1.99-11.59,3.28-17.77c2.06-9.52,4.44-18.41,7.15-26.65
		c2.7-8.24,6.31-15.39,10.82-21.44c4.5-6.05,10.36-10.75,17.58-14.1c7.21-3.34,16.22-5.02,27.04-5.02H5153.37z M5219.81,1077.84
		h-45.2l-13.91,65.67h-61.03c-17.52,0-32.2,2.06-44.04,6.18c-11.85,4.12-21.77,10.24-29.74,18.35
		c-7.99,8.11-14.43,18.29-19.31,30.52c-4.89,12.23-9.02,26.59-12.36,43.07c-1.29,6.95-2.38,13.65-3.28,20.09
		c-0.91,6.44-1.35,12.62-1.35,18.54c0,10.3,1.29,19.64,3.86,28.01c2.57,8.37,6.63,15.52,12.17,21.44
		c5.54,5.93,12.75,10.49,21.63,13.71c8.88,3.22,19.76,4.83,32.64,4.83h67.6c13.65,0,23.43-2.83,29.36-8.5
		c5.92-5.66,10.17-14.42,12.75-26.27L5219.81,1077.84z M4809.18,1213.43c4.12-8.75,9.14-15.9,15.07-21.44
		c5.92-5.53,13.13-9.59,21.63-12.17c8.5-2.57,18.54-3.86,30.13-3.86c18.02,0,31.1,3.09,39.21,9.27c8.11,6.18,12.17,16.49,12.17,30.9
		c0,4.12-0.33,8.63-0.97,13.52c-0.65,4.9-1.61,10.18-2.9,15.84c-2.58,12.62-5.86,23.37-9.85,32.26c-4,8.88-9.08,16.16-15.26,21.83
		c-6.18,5.67-13.52,9.79-22.02,12.36c-8.5,2.58-18.54,3.86-30.13,3.86c-18.03,0-31.04-3.15-39.02-9.46
		c-7.99-6.31-11.98-16.67-11.98-31.1c0-4.38,0.32-8.95,0.97-13.71c0.64-4.76,1.61-10.1,2.9-16.03
		C4801.71,1232.87,4805.06,1222.19,4809.18,1213.43z M4831.2,1144.86c-13.91,2.45-26.01,7.34-36.31,14.68
		c-10.3,7.34-18.87,17.58-25.69,30.71c-6.83,13.13-12.43,30.26-16.8,51.38c-1.29,6.95-2.26,13.59-2.9,19.89
		c-0.65,6.32-0.97,12.17-0.97,17.58c0,13.13,2.06,24.28,6.18,33.41c4.12,9.14,10.17,16.55,18.16,22.21
		c7.98,5.67,17.83,9.72,29.55,12.17c11.72,2.44,25.17,3.67,40.37,3.67c18.28,0,34.44-1.23,48.48-3.67
		c14.03-2.44,26.14-7.34,36.31-14.68c10.17-7.34,18.74-17.64,25.69-30.9c6.95-13.26,12.62-30.58,17-51.96
		c1.29-6.95,2.25-13.52,2.9-19.7c0.64-6.18,0.97-11.97,0.97-17.38c0-13.13-2.06-24.2-6.18-33.22c-4.12-9.01-10.18-16.35-18.16-22.02
		c-7.99-5.66-17.9-9.72-29.74-12.17c-11.85-2.44-25.37-3.67-40.56-3.67C4861.2,1141.19,4845.11,1142.42,4831.2,1144.86z
		 M4610.24,1348.24h45.2l24.72-115.5c3.86-18.28,10.36-31.93,19.51-40.95c9.14-9.01,22.85-13.52,41.14-13.52h18.93l7.34-34.77
		h-30.52c-14.68,0-27.56,1.29-38.63,3.86c-11.08,2.58-20.54,6.83-28.39,12.75c-7.86,5.93-14.43,13.85-19.7,23.76
		c-5.28,9.92-9.46,22.21-12.55,36.89L4610.24,1348.24z M4414.78,1211.88l15.84-74.17c1.8-7.73,4.25-12.88,7.34-15.45
		c3.09-2.57,8.5-3.86,16.23-3.86h78.42c12.88,0,21.83,2.06,26.85,6.18c5.02,4.12,7.53,10.43,7.53,18.93
		c0,5.41-1.03,12.49-3.09,21.25c-1.81,7.73-3.86,14.55-6.18,20.47c-2.32,5.93-5.41,10.82-9.27,14.68
		c-3.86,3.86-8.63,6.83-14.29,8.88c-5.67,2.07-12.88,3.09-21.63,3.09H4414.78z M4334.82,1348.24h50.99l20.47-95.8h122.84
		c15.45,0,28.33-2.19,38.63-6.57c10.3-4.38,18.74-10.3,25.3-17.77c6.57-7.47,11.59-16.35,15.06-26.65
		c3.48-10.3,6.24-21.25,8.31-32.84c1.03-5.66,1.74-11.26,2.12-16.8c0.39-5.53,0.58-10.88,0.58-16.03c0-7.98-0.91-15.51-2.7-22.6
		c-1.81-7.08-4.9-13.26-9.27-18.54c-4.38-5.28-10.24-9.4-17.58-12.36c-7.34-2.96-16.42-4.44-27.23-4.44h-130.57
		c-13.65,0-24.21,2.9-31.68,8.69c-7.47,5.79-12.88,16.42-16.23,31.87L4334.82,1348.24z M4272.25,1143.51h-47.51l-102.75,158.77
		l-32.45-158.77h-45.2l47.9,203.96l-45.58,66.83h45.97L4272.25,1143.51z M3993.74,1348.24l7.34-34.77h-11.2
		c-13.13,0-23.05-1.93-29.74-5.79c-6.7-3.86-10.04-10.94-10.04-21.25c0-2.06,0.13-4.31,0.39-6.76c0.25-2.44,0.64-4.96,1.16-7.53
		l20.09-93.87h58.33l7.34-34.77h-58.33l13.91-65.67h-45.2l-13.91,65.67h-28.2l-7.34,34.77h28.2l-22.02,103.14
		c-1.29,5.93-1.93,11.72-1.93,17.38c0,17,6.11,29.49,18.35,37.47c12.23,7.99,28.39,11.98,48.48,11.98H3993.74z M3892.92,1116.47
		l8.88-41.72h-45.2l-8.89,41.72H3892.92z M3798.66,1348.24h45.2l43.65-204.74h-45.2L3798.66,1348.24z M3717.93,1348.24h45.2
		l57.56-270.41h-45.2L3717.93,1348.24z M3656.9,1255.53l-9.66,46.36c-1.54,7.73-6.31,11.59-14.29,11.59h-63.74
		c-11.59,0-17.38-5.66-17.38-17c0-3.86,0.64-8.37,1.93-13.52c2.32-10.04,5.6-17.12,9.85-21.25c4.25-4.12,10.24-6.18,17.96-6.18
		H3656.9z M3552.21,1143.51l-7.34,34.77h100.05c15.71,0,23.56,6.7,23.56,20.09c0,2.84-0.39,5.93-1.16,9.27l-3.09,13.13h-92.71
		c-19.31,0-33.8,5.16-43.46,15.45c-9.66,10.3-16.68,25.11-21.05,44.42c-0.77,3.86-1.23,7.67-1.35,11.4
		c-0.13,3.73-0.19,7.28-0.19,10.62c0,14.68,3.6,25.95,10.82,33.8c7.21,7.86,17.9,11.78,32.06,11.78h99.28
		c13.65,0,23.43-2.9,29.36-8.69c5.92-5.79,10.17-14.49,12.75-26.07l23.56-109.71c1.03-4.38,1.54-9.4,1.54-15.07
		c0-12.36-3.74-22.99-11.2-31.87c-7.47-8.89-19.19-13.33-35.15-13.33H3552.21z M3507.79,1143.51h-45.2l-33.61,158.38
		c-1.55,7.73-6.31,11.59-14.29,11.59h-44.42c-12.36,0-21.25-2.51-26.65-7.53c-5.41-5.02-8.11-12.42-8.11-22.21
		c0-2.57,0.13-5.27,0.39-8.11c0.25-2.83,0.77-5.92,1.54-9.27l26.27-122.84h-45.2l-28.59,134.82c-0.52,2.58-0.91,5.54-1.16,8.89
		c-0.26,3.35-0.39,6.44-0.39,9.27c0,9.27,1.74,17.19,5.22,23.76c3.48,6.57,8.37,11.92,14.68,16.03c6.31,4.12,13.71,7.15,22.21,9.08
		c8.5,1.93,17.77,2.9,27.81,2.9h71.08c13.65,0,23.43-2.83,29.36-8.5c5.92-5.66,10.17-14.42,12.75-26.27L3507.79,1143.51z
		 M3053.12,1165.14c5.41-12.61,12.23-22.6,20.47-29.94c8.24-7.34,18.16-12.49,29.74-15.45c11.59-2.96,25.75-4.44,42.49-4.44
		c12.61,0,23.5,0.84,32.64,2.51c9.14,1.68,16.61,4.44,22.4,8.3c5.79,3.86,10.04,9.08,12.75,15.64c2.7,6.57,4.06,14.87,4.06,24.92
		c0,6.18-0.52,13.13-1.54,20.86c-1.03,7.73-2.58,16.23-4.64,25.5c-4.12,19.31-8.88,35.09-14.29,47.32
		c-5.41,12.23-12.17,21.89-20.28,28.97c-8.11,7.09-18.03,11.92-29.74,14.49c-11.72,2.58-25.82,3.86-42.3,3.86
		c-12.62,0-23.5-0.77-32.64-2.32c-9.14-1.54-16.61-4.18-22.41-7.92c-5.79-3.73-10.04-8.75-12.75-15.07
		c-2.7-6.31-4.06-14.35-4.06-24.14c0-11.84,1.93-26.91,5.79-45.2C3042.95,1193.73,3047.71,1177.76,3053.12,1165.14z
		 M3085.96,1079.77c-18.03,3.35-33.48,9.92-46.36,19.7c-12.88,9.79-23.56,23.44-32.06,40.95c-8.5,17.52-15.58,40.43-21.25,68.76
		c-2.06,10.82-3.54,20.73-4.44,29.75c-0.91,9.02-1.35,17.38-1.35,25.11c0,16.22,2.32,29.74,6.95,40.56
		c4.64,10.82,11.65,19.45,21.05,25.88c9.4,6.44,21.11,11.01,35.15,13.71c14.03,2.7,30.32,4.06,48.87,4.06h151.81l8.88-42.11
		l-39.02,1.54l0.39-1.54c5.66-3.09,10.88-6.82,15.65-11.2c4.76-4.38,9.2-9.98,13.33-16.8c4.12-6.82,7.85-15.19,11.2-25.11
		c3.34-9.91,6.43-21.95,9.27-36.12c4.12-20.6,6.18-39.02,6.18-55.24c0-16.23-2.45-29.94-7.34-41.14
		c-4.89-11.2-12.3-20.15-22.21-26.85c-9.92-6.69-22.34-11.52-37.28-14.49c-14.94-2.96-32.58-4.44-52.92-4.44
		C3125.49,1074.75,3103.98,1076.42,3085.96,1079.77z M2651.77,1348.24h45.2l36.31-169.97h52.92c12.36,0,21.31,2.26,26.85,6.76
		c5.54,4.51,8.31,11.65,8.31,21.44c0,2.58-0.19,5.54-0.58,8.89c-0.39,3.35-0.97,6.7-1.74,10.04l-26.27,122.84h45.2l28.59-134.82
		c0.51-2.57,0.9-5.54,1.16-8.89c0.25-3.34,0.39-6.43,0.39-9.27c0-9.27-1.74-17.19-5.21-23.76c-3.48-6.57-8.37-11.91-14.68-16.03
		c-6.31-4.12-13.71-7.15-22.21-9.08c-8.5-1.93-17.77-2.9-27.81-2.9h-57.56l13.91-65.67h-45.2L2651.77,1348.24z M2595.76,1178.27
		c6.43,0,9.66,2.7,9.66,8.11c0,1.54-0.13,2.7-0.39,3.48l-26.27,123.61h-54.47c-14.94,0-25.11-3.09-30.52-9.27
		c-5.41-6.18-8.11-14.55-8.11-25.11c0-4.89,0.45-10.17,1.35-15.84c0.9-5.66,1.99-11.59,3.28-17.77c2.06-9.52,4.44-18.41,7.15-26.65
		c2.7-8.24,6.31-15.39,10.82-21.44c4.5-6.05,10.36-10.75,17.58-14.1c7.21-3.34,16.22-5.02,27.04-5.02H2595.76z M2571.42,1348.24
		c-4.12,11.33-10.62,19.64-19.51,24.92c-8.88,5.27-19.12,7.92-30.71,7.92h-91.94l-7.73,34.77h95.8c15.45,0,28.84-1.48,40.17-4.44
		c11.33-2.96,21.05-7.73,29.17-14.29c8.11-6.57,14.81-15.13,20.09-25.69c5.28-10.56,9.59-23.56,12.94-39.02l32.84-154.13
		c0.77-3.09,1.16-6.18,1.16-9.27c0-7.47-2.32-13.58-6.95-18.35c-4.64-4.76-11.85-7.15-21.63-7.15h-76.1
		c-17.52,0-32.2,2.06-44.04,6.18c-11.85,4.12-21.77,10.24-29.75,18.35c-7.99,8.11-14.43,18.29-19.31,30.52
		c-4.89,12.23-9.02,26.59-12.36,43.07c-1.29,6.95-2.38,13.65-3.28,20.09c-0.91,6.44-1.35,12.62-1.35,18.54
		c0,10.3,1.29,19.64,3.86,28.01c2.57,8.37,6.69,15.52,12.36,21.44c5.66,5.93,12.94,10.49,21.83,13.71
		c8.88,3.22,19.76,4.83,32.64,4.83H2571.42z M2441.63,1116.47l8.88-41.72h-45.2l-8.89,41.72H2441.63z M2347.37,1348.24h45.2
		l43.65-204.74h-45.2L2347.37,1348.24z M2360.51,1077.84h-50.99l-23.56,110.87h-140.61l23.56-110.87h-50.99l-57.56,270.41h50.99
		l25.5-118.98h140.61l-25.5,118.98h50.99L2360.51,1077.84z M1878.81,1396.92l66.06-76.87l-32.45-25.88l-63.35,78.42L1878.81,1396.92
		z M1708.45,1226.17c3.6-17.51,10.17-30.26,19.7-38.24c9.53-7.98,23.95-11.98,43.27-11.98c5.92,0,11.59,0.52,17,1.54
		c5.41,1.03,10.1,2.64,14.1,4.83c3.99,2.19,7.21,5.09,9.66,8.69c2.44,3.61,3.67,8.11,3.67,13.52c0,1.29-0.07,2.84-0.19,4.64
		c-0.13,1.81-0.33,3.48-0.58,5.02c-0.52,2.84-1.68,5.54-3.48,8.11c-1.81,2.58-4.89,3.86-9.27,3.86H1708.45z M1826.66,1348.24
		l7.34-34.77h-100.05c-13.91,0-23.31-2.57-28.2-7.73c-4.9-5.15-7.34-12.23-7.34-21.25c0-7.47,0.9-15.32,2.7-23.56h118.98
		c11.59,0,20.6-2.9,27.04-8.69c6.43-5.79,10.82-14.49,13.13-26.07c1.03-4.38,1.67-8.56,1.93-12.55c0.25-3.99,0.39-7.79,0.39-11.39
		c0-11.59-2.19-21.31-6.57-29.17c-4.38-7.85-10.5-14.16-18.35-18.93c-7.86-4.76-17.13-8.11-27.81-10.04
		c-10.69-1.93-22.34-2.9-34.96-2.9c-17.52,0-32.64,1.42-45.39,4.25c-12.75,2.84-23.76,7.99-33.03,15.45
		c-9.27,7.47-17,17.71-23.18,30.71c-6.18,13.01-11.46,29.68-15.84,50.02c-1.81,8.76-3.22,17-4.25,24.72
		c-1.03,7.73-1.54,14.94-1.54,21.63c0,9.53,1.16,18.03,3.48,25.5c2.32,7.47,6.05,13.78,11.2,18.93c5.15,5.15,11.84,9.08,20.09,11.78
		c8.24,2.7,18.41,4.06,30.52,4.06H1826.66z M1499.47,1143.51h-46.74l37.86,188.9c1.03,4.64,2.51,8.18,4.44,10.62
		c1.93,2.45,4.12,4.25,6.57,5.41c2.44,1.16,5.15,1.8,8.11,1.93c2.96,0.13,5.85,0.19,8.69,0.19c2.83,0,5.85-0.07,9.08-0.19
		c3.22-0.13,6.37-0.77,9.46-1.93c3.09-1.16,6.18-2.96,9.27-5.41c3.09-2.44,6.05-5.99,8.89-10.62l116.66-188.9h-48.29l-90.01,151.81
		c-1.03,1.55-2.19,3.28-3.48,5.22c-1.29,1.93-2.58,2.9-3.86,2.9c-1.29,0-2.12-0.97-2.51-2.9c-0.39-1.93-0.71-3.67-0.97-5.22
		L1499.47,1143.51z M1445.78,1116.47l8.88-41.72h-45.2l-8.89,41.72H1445.78z M1351.52,1348.24h45.2l43.65-204.74h-45.2
		L1351.52,1348.24z M1330.28,1348.24l7.34-34.77h-11.2c-13.13,0-23.05-1.93-29.74-5.79c-6.7-3.86-10.04-10.94-10.04-21.25
		c0-2.06,0.13-4.31,0.39-6.76c0.25-2.44,0.64-4.96,1.16-7.53l20.09-93.87h58.33l7.34-34.77h-58.33l13.91-65.67h-45.2l-13.91,65.67
		h-28.2l-7.34,34.77h28.2l-22.02,103.14c-1.29,5.93-1.93,11.72-1.93,17.38c0,17,6.11,29.49,18.35,37.47
		c12.23,7.99,28.39,11.98,48.48,11.98H1330.28z M1158.77,1255.53l-9.66,46.36c-1.54,7.73-6.31,11.59-14.29,11.59h-63.74
		c-11.59,0-17.38-5.66-17.38-17c0-3.86,0.64-8.37,1.93-13.52c2.32-10.04,5.6-17.12,9.85-21.25c4.25-4.12,10.24-6.18,17.96-6.18
		H1158.77z M1054.08,1143.51l-7.34,34.77h100.05c15.71,0,23.56,6.7,23.56,20.09c0,2.84-0.39,5.93-1.16,9.27l-3.09,13.13h-92.71
		c-19.31,0-33.8,5.16-43.46,15.45c-9.66,10.3-16.68,25.11-21.05,44.42c-0.77,3.86-1.23,7.67-1.35,11.4
		c-0.13,3.73-0.19,7.28-0.19,10.62c0,14.68,3.6,25.95,10.82,33.8c7.21,7.86,17.9,11.78,32.06,11.78h99.28
		c13.65,0,23.43-2.9,29.36-8.69c5.92-5.79,10.17-14.49,12.75-26.07l23.56-109.71c1.03-4.38,1.54-9.4,1.54-15.07
		c0-12.36-3.74-22.99-11.2-31.87c-7.47-8.89-19.19-13.33-35.15-13.33H1054.08z M868.27,1143.51h-46.74l37.86,188.9
		c1.03,4.64,2.51,8.18,4.44,10.62c1.93,2.45,4.12,4.25,6.57,5.41c2.44,1.16,5.15,1.8,8.11,1.93c2.96,0.13,5.85,0.19,8.69,0.19
		c2.83,0,5.85-0.07,9.08-0.19c3.22-0.13,6.37-0.77,9.46-1.93c3.09-1.16,6.18-2.96,9.27-5.41c3.09-2.44,6.05-5.99,8.89-10.62
		l116.66-188.9h-48.29l-90.01,151.81c-1.03,1.55-2.19,3.28-3.48,5.22c-1.29,1.93-2.58,2.9-3.86,2.9c-1.29,0-2.12-0.97-2.51-2.9
		c-0.39-1.93-0.71-3.67-0.97-5.22L868.27,1143.51z M635.73,1213.43c4.12-8.75,9.14-15.9,15.07-21.44
		c5.92-5.53,13.13-9.59,21.63-12.17c8.5-2.57,18.54-3.86,30.13-3.86c18.02,0,31.1,3.09,39.21,9.27c8.11,6.18,12.17,16.49,12.17,30.9
		c0,4.12-0.33,8.63-0.97,13.52c-0.65,4.9-1.61,10.18-2.9,15.84c-2.58,12.62-5.86,23.37-9.85,32.26c-4,8.88-9.08,16.16-15.26,21.83
		c-6.18,5.67-13.52,9.79-22.02,12.36c-8.5,2.58-18.54,3.86-30.13,3.86c-18.03,0-31.04-3.15-39.02-9.46
		c-7.99-6.31-11.98-16.67-11.98-31.1c0-4.38,0.32-8.95,0.97-13.71c0.64-4.76,1.61-10.1,2.9-16.03
		C628.25,1232.87,631.6,1222.19,635.73,1213.43z M657.74,1144.86c-13.91,2.45-26.01,7.34-36.31,14.68
		c-10.3,7.34-18.87,17.58-25.69,30.71c-6.83,13.13-12.43,30.26-16.8,51.38c-1.29,6.95-2.26,13.59-2.9,19.89
		c-0.65,6.32-0.97,12.17-0.97,17.58c0,13.13,2.06,24.28,6.18,33.41c4.12,9.14,10.17,16.55,18.16,22.21
		c7.98,5.67,17.83,9.72,29.55,12.17c11.72,2.44,25.17,3.67,40.37,3.67c18.28,0,34.44-1.23,48.48-3.67
		c14.03-2.44,26.14-7.34,36.31-14.68c10.17-7.34,18.74-17.64,25.69-30.9c6.95-13.26,12.61-30.58,17-51.96
		c1.29-6.95,2.25-13.52,2.9-19.7c0.64-6.18,0.97-11.97,0.97-17.38c0-13.13-2.06-24.2-6.18-33.22c-4.12-9.01-10.18-16.35-18.16-22.02
		c-7.99-5.66-17.9-9.72-29.74-12.17c-11.85-2.44-25.37-3.67-40.56-3.67C687.74,1141.19,671.65,1142.42,657.74,1144.86z
		 M342.14,1348.24h45.2l33.61-158.38c1.54-7.73,6.31-11.59,14.29-11.59h41.33c12.36,0,21.31,2.51,26.85,7.53
		c5.54,5.02,8.31,12.43,8.31,22.21c0,5.15-0.77,10.95-2.32,17.38l-26.27,122.84h45.2l28.97-134.82c0.51-2.32,0.9-5.15,1.16-8.5
		c0.25-3.34,0.39-6.43,0.39-9.27c0-9.27-1.74-17.19-5.22-23.76c-3.48-6.57-8.37-11.98-14.68-16.23c-6.31-4.25-13.78-7.34-22.4-9.27
		c-8.63-1.93-17.96-2.9-28.01-2.9h-67.99c-13.65,0-23.44,2.9-29.36,8.69c-5.93,5.79-10.18,14.49-12.75,26.07L342.14,1348.24z
		 M120.41,1348.24h45.2l33.61-158.38c1.54-7.73,6.31-11.59,14.29-11.59h41.33c12.36,0,21.31,2.51,26.85,7.53
		c5.54,5.02,8.31,12.43,8.31,22.21c0,5.15-0.77,10.95-2.32,17.38l-26.27,122.84h45.2l28.97-134.82c0.51-2.32,0.9-5.15,1.16-8.5
		c0.25-3.34,0.39-6.43,0.39-9.27c0-9.27-1.74-17.19-5.22-23.76c-3.48-6.57-8.37-11.98-14.68-16.23c-6.31-4.25-13.78-7.34-22.4-9.27
		c-8.63-1.93-17.96-2.9-28.01-2.9h-67.99c-13.65,0-23.44,2.9-29.36,8.69c-5.93,5.79-10.18,14.49-12.75,26.07L120.41,1348.24z
		 M75.99,1348.24l57.56-270.41H82.56L25,1348.24H75.99z"/>
</g>
<line id="XMLID_114_" class="st2" x1="25" y1="1000" x2="5975" y2="1000"/>
</svg>
