<?xml version="1.0" encoding="utf-8"?>
<!-- Generator: Adobe Illustrator 24.1.3, SVG Export Plug-In . SVG Version: 6.00 Build 0)  -->
<svg version="1.1" xmlns="http://www.w3.org/2000/svg" xmlns:xlink="http://www.w3.org/1999/xlink" x="0px" y="0px"
	 viewBox="0 0 1080 871" style="enable-background:new 0 0 1080 871;" xml:space="preserve">
<style type="text/css">
	.st0{fill:#DDBF5F;}
	.st1{fill:#3D007A;}
	.st2{fill:#7F7F7F;}
	.st3{fill:#D5AE37;}
	.st4{fill:#3D007A;stroke:#FFFFFF;stroke-width:2;stroke-miterlimit:10;}
	.st5{display:none;}
	.st6{display:inline;fill:#FFFFFF;}
</style>
<g id="Layer_1">
	<g>
		<rect x="0" y="-1" class="st0" width="1081" height="873"/>
	</g>
</g>
<g id="Layer_2">
	<rect x="28" y="29" class="st1" width="1023" height="486"/>
	<rect x="28" y="514" class="st2" width="1023" height="154"/>
	<g>
		<path class="st0" d="M279.3,268.2L63.2,57.6h136.7L364,221L528.7,57.6h134.7L448,266.9l232.7,221.6h-140L364,314L186.6,488.5H47.9
			L279.3,268.2z"/>
	</g>
	<g>
		<path class="st3" d="M918.5,488.7l-32-25.5c-32,16-69.7,25.5-110.6,25.5H662.8c-129.8,0-225.6-95-225.6-220.3
			C437.2,141.3,533,57,662.8,57h113.1c134.2,0,227.6,86.1,227.6,211.4c0,62.9-24.3,118.2-64.6,157.3l87.6,62.9H918.5z M682,310.5
			h107.4l86.3,67.7c28.8-25.5,46.7-62.9,46.7-106.3c0-81.3-60.7-139.5-146.4-139.5H662.8c-83.1,0-144.5,57.6-144.5,139.5
			c0,81.3,60.7,141.3,144.5,141.3h113.1c14.1,0,27.5-1.8,40.3-4.8L682,310.5z"/>
	</g>
	<g>
		<path class="st4" d="M140.9,541.2h51.4v10.9h-40.1v1.7c-0.4,7.3-1,14.4-1.8,21.3c-0.4,1.2-0.6,2.3-0.6,3.5
			c5.2-4.6,10.8-6.9,16.7-6.9c8,0,14.5,2.5,19.7,7.5c5.6,5.4,8.4,13.2,8.4,23.6c0,13-3.6,23-10.8,29.9c-5.6,5.4-12.6,8.1-20.9,8.1
			c-8,0-14.6-2.5-19.7-7.5c-5.2-5-8.4-12.5-9.6-22.4h13.8c0.8,7.3,2.8,12.5,6,15.5c2.4,2.3,5.4,3.5,9,3.5c4.8,0,8.6-1.3,11.4-4
			c4.4-4.2,6.6-11.3,6.6-21.3c0-9.6-1.8-16.1-5.4-19.6c-2.4-2.3-5.2-3.5-8.4-3.5c-4.8,0-9,1.7-12.6,5.2c-2.4,2.3-4,4-4.8,5.2h-12
			c0.4-1.5,0.6-2.9,0.6-4l3-44.3V541.2z"/>
		<path class="st4" d="M204.3,639.6l40.7-99.5h12l40.7,99.5h-14.3l-12.6-29.9h-39.5l-12.6,29.9H204.3z M251,559.1l-15.5,39.7h31.1
			L251,559.1z"/>
		<path class="st4" d="M369.3,552.7c8.4-8.1,18.5-12.1,30.5-12.1s22.1,4,30.5,12.1c9.6,9.2,14.3,21.9,14.3,38
			c0,14.6-4.2,26.9-12.6,36.8l9.6,10.9l-9,8.1L422.5,635c-7.6,3.8-15.2,5.8-22.7,5.8c-12,0-22.1-4-30.5-12.1
			c-9.6-9.2-14.3-21.9-14.3-38S359.8,562,369.3,552.7z M414.2,625.8L401,610.3l9-7.5l13.2,15c4.8-6.1,7.2-15.1,7.2-27
			c0-13.8-3.4-24-10.2-30.5c-6-5.8-12.8-8.6-20.3-8.6c-7.6,0-14.3,2.9-20.3,8.6c-6.8,6.5-10.2,16.7-10.2,30.5s3.4,24,10.2,30.5
			c6,5.8,12.8,8.6,20.3,8.6C405.8,629.8,410.6,628.5,414.2,625.8z"/>
		<path class="st4" d="M465,541.2h13.8v69c0,5.4,1.8,9.8,5.4,13.2c4.4,4.2,10.8,6.3,19.1,6.3c8.4,0,14.7-2.1,19.1-6.3
			c3.6-3.5,5.4-7.9,5.4-13.2v-69h13.8v69.6c0,8.4-2.8,15.3-8.4,20.7c-6.4,6.1-16.3,9.2-29.9,9.2c-13.6,0-23.5-3.1-29.9-9.2
			c-5.6-5.4-8.4-12.3-8.4-20.7V541.2z"/>
		<path class="st4" d="M554.1,639.6l40.7-99.5h12l40.7,99.5H633l-12.6-29.9H581l-12.6,29.9H554.1z M600.7,559.1l-15.5,39.7h31.1
			L600.7,559.1z"/>
		<path class="st4" d="M661.1,541.2h13.8v87.5h55v10.9h-68.8V541.2z"/>
		<path class="st4" d="M737,541.2h26.9v12.7h-6.6V627h6.6v12.7H737V627h6.6v-73.1H737V541.2z"/>
		<path class="st4" d="M773.5,541.2h81.9v10.9h-34.1v87.5h-13.8v-87.5h-34.1V541.2z"/>
		<path class="st4" d="M860.8,541.2h14.3l29.3,44.9l29.3-44.9h14.3l-36.5,54.7v43.7h-13.8v-43.7L860.8,541.2z"/>
	</g>
	<g>
		<path class="st4" d="M173.4,788.8l17,4.3c-3.6,13.9-10,24.6-19.2,31.9c-9.3,7.3-20.6,11-33.9,11c-13.8,0-25.1-2.8-33.7-8.4
			c-8.7-5.6-15.3-13.8-19.8-24.5c-4.5-10.7-6.8-22.1-6.8-34.4c0-13.4,2.6-25,7.7-35c5.1-10,12.4-17.5,21.8-22.7
			c9.4-5.2,19.8-7.7,31.1-7.7c12.8,0,23.6,3.3,32.4,9.8c8.8,6.5,14.9,15.7,18.3,27.6l-16.7,3.9c-3-9.3-7.3-16.1-13-20.4
			c-5.7-4.3-12.8-6.4-21.4-6.4c-9.9,0-18.1,2.4-24.7,7.1c-6.6,4.7-11.3,11.1-14,19c-2.7,8-4,16.2-4,24.6c0,10.9,1.6,20.4,4.8,28.6
			c3.2,8.1,8.1,14.2,14.8,18.3c6.7,4,14,6,21.8,6c9.5,0,17.6-2.7,24.2-8.2C166.6,807.7,171.1,799.6,173.4,788.8z"/>
		<path class="st4" d="M211.7,833.8V705.4h92.8v15.1h-75.8v39.3h71V775h-71v43.7h78.8v15.1H211.7z"/>
		<path class="st4" d="M331.2,833.8V705.4h56.9c11.4,0,20.1,1.2,26.1,3.5c6,2.3,10.7,6.4,14.3,12.2c3.6,5.8,5.3,12.3,5.3,19.3
			c0,9.1-2.9,16.8-8.8,23c-5.9,6.2-15,10.2-27.3,11.9c4.5,2.2,7.9,4.3,10.2,6.4c5,4.6,9.7,10.2,14.1,17.1l22.3,34.9h-21.4l-17-26.7
			c-5-7.7-9-13.6-12.3-17.7c-3.2-4.1-6.1-6.9-8.6-8.6c-2.5-1.6-5.1-2.8-7.7-3.4c-1.9-0.4-5.1-0.6-9.5-0.6h-19.7v57H331.2z
			 M348.1,762.1h36.5c7.8,0,13.8-0.8,18.2-2.4c4.4-1.6,7.7-4.2,10-7.7c2.3-3.5,3.4-7.4,3.4-11.5c0-6.1-2.2-11.1-6.6-15
			c-4.4-3.9-11.4-5.9-20.9-5.9h-40.6V762.1z"/>
		<path class="st4" d="M489.8,833.8V720.6h-42.3v-15.1h101.7v15.1h-42.5v113.2H489.8z"/>
		<path class="st4" d="M569.5,833.8V705.4h17v128.3H569.5z"/>
		<path class="st4" d="M617.3,833.8V705.4h86.6v15.1h-69.6v39.7h60.2v15.1h-60.2v58.3H617.3z"/>
		<path class="st4" d="M728.9,833.8V705.4h17v128.3H728.9z"/>
		<path class="st4" d="M776.1,833.8V705.4h92.8v15.1h-75.8v39.3h71V775h-71v43.7h78.8v15.1H776.1z"/>
		<path class="st4" d="M895.4,833.8V705.4h44.2c10,0,17.6,0.6,22.8,1.8c7.4,1.7,13.6,4.8,18.8,9.2c6.8,5.7,11.8,13,15.2,21.9
			c3.4,8.9,5,19.1,5,30.5c0,9.7-1.1,18.4-3.4,25.9c-2.3,7.5-5.2,13.8-8.8,18.7c-3.6,4.9-7.5,8.8-11.7,11.6c-4.2,2.8-9.3,5-15.3,6.4
			c-6,1.5-12.9,2.2-20.6,2.2H895.4z M912.3,818.6h27.4c8.5,0,15.1-0.8,19.9-2.4c4.8-1.6,8.7-3.8,11.5-6.7c4-4,7.2-9.4,9.4-16.2
			c2.2-6.8,3.4-15,3.4-24.7c0-13.4-2.2-23.7-6.6-30.9c-4.4-7.2-9.8-12-16.1-14.5c-4.6-1.8-11.9-2.6-22-2.6h-27V818.6z"/>
	</g>
	<g class="st5">
		<rect x="150" y="835" class="st6" width="414" height="36"/>
	</g>
	<g class="st5">
		<rect x="398" y="668" class="st6" width="414" height="27"/>
	</g>
	<g class="st5">
		<rect x="1052" y="-47" class="st6" width="27" height="414"/>
	</g>
	<g class="st5">
		<rect x="1006" y="486" class="st6" width="73" height="414"/>
	</g>
	<g>
	</g>
	<g>
	</g>
	<g>
	</g>
	<g>
	</g>
	<g>
	</g>
	<g>
	</g>
	<g>
	</g>
	<g>
	</g>
	<g>
	</g>
	<g>
	</g>
	<g>
	</g>
	<g>
	</g>
	<g>
	</g>
	<g>
	</g>
	<g>
	</g>
</g>
</svg>
