<?xml version="1.0" encoding="utf-8"?>
<!-- Generator: Adobe Illustrator 24.1.3, SVG Export Plug-In . SVG Version: 6.00 Build 0)  -->
<svg version="1.1" xmlns="http://www.w3.org/2000/svg" xmlns:xlink="http://www.w3.org/1999/xlink" x="0px" y="0px"
	 viewBox="0 0 1080 871" style="enable-background:new 0 0 1080 871;" xml:space="preserve">
<style type="text/css">
	.st0{fill:#DDBF5F;}
	.st1{fill:#7F7F7F;}
	.st2{fill:#3D007A;}
	.st3{display:none;}
	.st4{display:inline;fill:#FFFFFF;}
	.st5{fill:#3D007A;stroke:#FFFFFF;stroke-width:2;stroke-miterlimit:10;}
</style>
<g id="Layer_1">
	<g>
		<rect x="0" y="-1" class="st0" width="1081" height="873"/>
	</g>
</g>
<g id="Layer_2">
	<rect x="28" y="29" class="st1" width="1023" height="486"/>
	<g>
		<path class="st0" d="M918.5,499.7l-32-25.5c-32,16-69.7,25.5-110.6,25.5H662.8c-129.8,0-225.6-95-225.6-220.3
			C437.2,152.3,533,68,662.8,68h113.1c134.2,0,227.6,86.1,227.6,211.4c0,62.9-24.3,118.2-64.6,157.3l87.6,62.9H918.5z M682,321.5
			h107.4l86.3,67.7c28.8-25.5,46.7-62.9,46.7-106.3c0-81.3-60.7-139.5-146.4-139.5H662.8c-83.1,0-144.5,57.6-144.5,139.5
			c0,81.3,60.7,141.3,144.5,141.3h113.1c14.1,0,27.5-1.8,40.3-4.8L682,321.5z"/>
	</g>
	<g>
		<path class="st2" d="M279.3,279L63.2,67.2h136.7L364,231.6L528.7,67.2h134.7L448,277.7l232.7,222.9h-140L364,325.1L186.6,500.6
			H47.9L279.3,279z"/>
	</g>
	<rect x="28" y="514" class="st1" width="1023" height="160"/>
	<g class="st3">
		<rect x="914" y="408" class="st4" width="165" height="414"/>
	</g>
	<g class="st3">
		<rect x="643" y="816" class="st4" width="414" height="53"/>
	</g>
	<g class="st3">
		<rect x="1052" y="-36" class="st4" width="27" height="414"/>
	</g>
	<g>
		<path class="st5" d="M211.6,632.4c-25,0-43.4-19.7-43.4-45.6c0-26.3,18.5-43.8,43.4-43.8h48.5v15.6h-48.5
			c-16,0-27.8,11.9-27.8,28.9c0,16.9,11.7,29.3,27.8,29.3h48.5v15.6H211.6z"/>
		<path class="st5" d="M272.7,632.4v-89.4h79.8v15.6h-64.3v58.2h64.5v15.6H272.7z M299.7,593.5v-13.2h49.6v13.2H299.7z"/>
		<path class="st5" d="M449.2,632.4l-22.6-24.9h-33.5v-13.8h37.3c11.2,0,17.1-6.4,17.1-18c0-11.6-6.4-17.2-17.1-17.2h-48.7v73.8
			h-15.5v-89.4h64.2c20.4,0,32.5,12.7,32.5,32.6c0,14.8-6.9,25.2-18.5,29.7l26.9,27.2H449.2z"/>
		<path class="st5" d="M506.1,632.4v-73.8h-34v-15.6h83.5v15.6h-34v73.8H506.1z"/>
		<path class="st5" d="M566.9,632.4v-89.4h15.6v89.4H566.9z"/>
		<path class="st5" d="M598.9,632.4v-89.4h75.9v15.6h-60.4v73.8H598.9z M625.8,595.4v-13.7h45.3v13.7H625.8z"/>
		<path class="st5" d="M686.5,632.4v-89.4h15.6v89.4H686.5z"/>
		<path class="st5" d="M718.5,632.4v-89.4h79.8v15.6H734v58.2h64.5v15.6H718.5z M745.4,593.5v-13.2H795v13.2H745.4z"/>
		<path class="st5" d="M811.9,632.4v-89.4h51.8c25.2,0,43.6,17.8,43.6,43.8c0,26-18.3,45.6-43.6,45.6H811.9z M863.7,616.8
			c16.1,0,27.9-12.4,27.9-29.3s-11.8-28.9-27.9-28.9h-36.3v58.2H863.7z"/>
	</g>
	<g>
		<path class="st5" d="M70.7,812v-81.4h16.2l19.3,57.7c1.8,5.4,3.1,9.4,3.9,12.1c0.9-3,2.4-7.3,4.3-13.1l19.5-56.7h14.5V812H138
			v-68.2L114.4,812h-9.7l-23.6-69.3V812H70.7z"/>
		<path class="st5" d="M156.9,812l31.3-81.4h11.6l33.3,81.4h-12.3l-9.5-24.7h-34l-8.9,24.7H156.9z M180.3,778.5H208l-8.5-22.6
			c-2.6-6.8-4.5-12.5-5.8-16.9c-1,5.2-2.5,10.4-4.4,15.6L180.3,778.5z"/>
		<path class="st5" d="M241.6,812v-81.4h11.1l42.8,63.9v-63.9h10.3V812h-11.1l-42.8-64v64H241.6z"/>
		<path class="st5" d="M377.3,730.5H388v47c0,8.2-0.9,14.7-2.8,19.5c-1.9,4.8-5.2,8.7-10,11.7c-4.8,3-11.2,4.5-19,4.5
			c-7.6,0-13.9-1.3-18.7-3.9c-4.9-2.6-8.3-6.4-10.4-11.4c-2.1-5-3.1-11.8-3.1-20.4v-47h10.8v47c0,7.1,0.7,12.3,2,15.6
			c1.3,3.4,3.6,5.9,6.8,7.7c3.2,1.8,7.1,2.7,11.7,2.7c7.9,0,13.6-1.8,16.9-5.4c3.4-3.6,5.1-10.5,5.1-20.7V730.5z"/>
		<path class="st5" d="M406.5,812v-81.4h54.9v9.6h-44.2v25.2h38.2v9.6h-38.2v37H406.5z"/>
		<path class="st5" d="M460.2,812l31.3-81.4h11.6l33.3,81.4h-12.3l-9.5-24.7h-34l-8.9,24.7H460.2z M483.7,778.5h27.6l-8.5-22.6
			c-2.6-6.8-4.5-12.5-5.8-16.9c-1,5.2-2.5,10.4-4.4,15.6L483.7,778.5z"/>
		<path class="st5" d="M603.1,783.4l10.8,2.7c-2.3,8.9-6.3,15.6-12.2,20.2c-5.9,4.6-13,7-21.5,7c-8.8,0-15.9-1.8-21.4-5.4
			c-5.5-3.6-9.7-8.7-12.6-15.5c-2.9-6.8-4.3-14.1-4.3-21.8c0-8.5,1.6-15.9,4.9-22.2c3.2-6.3,7.8-11.1,13.8-14.4
			c6-3.3,12.6-4.9,19.7-4.9c8.1,0,15,2.1,20.6,6.2c5.6,4.1,9.4,10,11.6,17.5l-10.6,2.5c-1.9-5.9-4.6-10.2-8.2-12.9
			c-3.6-2.7-8.1-4.1-13.6-4.1c-6.3,0-11.5,1.5-15.7,4.5c-4.2,3-7.2,7-8.9,12.1s-2.6,10.3-2.6,15.6c0,6.9,1,13,3,18.1
			c2,5.2,5.2,9,9.4,11.6c4.3,2.6,8.9,3.8,13.8,3.8c6,0,11.1-1.7,15.3-5.2C598.8,795.4,601.7,790.3,603.1,783.4z"/>
		<path class="st5" d="M647.9,812v-71.8h-26.8v-9.6h64.5v9.6h-26.9V812H647.9z"/>
		<path class="st5" d="M750.1,730.5h10.8v47c0,8.2-0.9,14.7-2.8,19.5c-1.9,4.8-5.2,8.7-10,11.7c-4.8,3-11.2,4.5-19,4.5
			c-7.6,0-13.9-1.3-18.7-3.9c-4.9-2.6-8.3-6.4-10.4-11.4c-2.1-5-3.1-11.8-3.1-20.4v-47h10.8v47c0,7.1,0.7,12.3,2,15.6
			c1.3,3.4,3.6,5.9,6.8,7.7s7.1,2.7,11.7,2.7c7.9,0,13.6-1.8,16.9-5.4c3.4-3.6,5.1-10.5,5.1-20.7V730.5z"/>
		<path class="st5" d="M779,812v-81.4h36.1c7.3,0,12.8,0.7,16.6,2.2c3.8,1.5,6.8,4,9.1,7.7s3.4,7.8,3.4,12.3
			c0,5.8-1.9,10.6-5.6,14.6c-3.7,4-9.5,6.5-17.3,7.6c2.9,1.4,5,2.7,6.5,4.1c3.1,2.9,6.1,6.5,8.9,10.8l14.2,22.2h-13.6L826.4,795
			c-3.1-4.9-5.7-8.6-7.8-11.2c-2-2.6-3.9-4.4-5.5-5.4c-1.6-1-3.2-1.8-4.9-2.2c-1.2-0.3-3.2-0.4-6-0.4h-12.5V812H779z M789.8,766.5
			h23.2c4.9,0,8.8-0.5,11.6-1.5s4.9-2.6,6.3-4.9s2.2-4.7,2.2-7.3c0-3.9-1.4-7-4.2-9.5c-2.8-2.5-7.2-3.7-13.2-3.7h-25.8V766.5z"/>
		<path class="st5" d="M861.2,812v-81.4h58.9v9.6H872v24.9h45v9.6h-45v27.7h50v9.6H861.2z"/>
		<path class="st5" d="M937,812v-81.4h36.1c7.3,0,12.8,0.7,16.6,2.2c3.8,1.5,6.8,4,9.1,7.7s3.4,7.8,3.4,12.3
			c0,5.8-1.9,10.6-5.6,14.6c-3.7,4-9.5,6.5-17.3,7.6c2.9,1.4,5,2.7,6.5,4.1c3.1,2.9,6.1,6.5,8.9,10.8l14.2,22.2h-13.6L984.5,795
			c-3.1-4.9-5.7-8.6-7.8-11.2c-2-2.6-3.9-4.4-5.5-5.4c-1.6-1-3.2-1.8-4.9-2.2c-1.2-0.3-3.2-0.4-6-0.4h-12.5V812H937z M947.8,766.5
			H971c4.9,0,8.8-0.5,11.6-1.5s4.9-2.6,6.3-4.9s2.2-4.7,2.2-7.3c0-3.9-1.4-7-4.2-9.5c-2.8-2.5-7.2-3.7-13.2-3.7h-25.8V766.5z"/>
	</g>
	<g>
	</g>
	<g>
	</g>
	<g>
	</g>
	<g>
	</g>
	<g>
	</g>
	<g>
	</g>
	<g>
	</g>
	<g>
	</g>
	<g>
	</g>
	<g>
	</g>
	<g>
	</g>
	<g>
	</g>
	<g>
	</g>
	<g>
	</g>
	<g>
	</g>
</g>
</svg>
